<?xml version="1.0" encoding="UTF-8" standalone="no"?>
<!-- Created with Inkscape (http://www.inkscape.org/) -->

<svg
   xmlns:dc="http://purl.org/dc/elements/1.1/"
   xmlns:cc="http://creativecommons.org/ns#"
   xmlns:rdf="http://www.w3.org/1999/02/22-rdf-syntax-ns#"
   xmlns:svg="http://www.w3.org/2000/svg"
   xmlns="http://www.w3.org/2000/svg"
   xmlns:sodipodi="http://sodipodi.sourceforge.net/DTD/sodipodi-0.dtd"
   xmlns:inkscape="http://www.inkscape.org/namespaces/inkscape"
   width="555.34998"
   height="686.45001"
   id="svg2"
   sodipodi:version="0.32"
   inkscape:version="0.48.3.1 r9886"
   version="1.0"
   sodipodi:docname="OMNotebook_icon.svg"
   inkscape:output_extension="org.inkscape.output.svg.inkscape"
   inkscape:export-filename="C:\Documents and Settings\sm\Desktop\inkscape graphics\notebook.png"
   inkscape:export-xdpi="90"
   inkscape:export-ydpi="90">
  <defs
     id="defs4">
    <filter
       inkscape:collect="always"
       x="-0.15353236"
       width="1.3070647"
       y="-0.11783122"
       height="1.2356623"
       id="filter3623">
      <feGaussianBlur
         inkscape:collect="always"
         stdDeviation="33.951032"
         id="feGaussianBlur3625" />
    </filter>
  </defs>
  <sodipodi:namedview
     id="base"
     pagecolor="#ffffff"
     bordercolor="#666666"
     borderopacity="1.0"
     gridtolerance="10000"
     guidetolerance="10"
     objecttolerance="10"
     inkscape:pageopacity="0.0"
     inkscape:pageshadow="2"
     inkscape:zoom="0.83086221"
     inkscape:cx="176.47171"
     inkscape:cy="357.80722"
     inkscape:document-units="px"
     inkscape:current-layer="layer1"
     showgrid="true"
     showguides="true"
     inkscape:guide-bbox="true"
     width="555.35px"
     height="686.45px"
     inkscape:window-width="1195"
     inkscape:window-height="843"
     inkscape:window-x="173"
     inkscape:window-y="27"
     borderlayer="false"
     inkscape:window-maximized="0">
    <sodipodi:guide
       orientation="vertical"
       position="58.974881"
       id="guide3131" />
    <sodipodi:guide
       orientation="horizontal"
       position="920"
       id="guide3133" />
    <sodipodi:guide
       orientation="horizontal"
       position="800.37338"
       id="guide3135" />
  </sodipodi:namedview>
  <metadata
     id="metadata7">
    <rdf:RDF>
      <cc:Work
         rdf:about="">
        <dc:format>image/svg+xml</dc:format>
        <dc:type
           rdf:resource="http://purl.org/dc/dcmitype/StillImage" />
        <cc:license
           rdf:resource="http://web.resource.org/cc/PublicDomain" />
        <dc:title></dc:title>
        <dc:date>2007-02-11</dc:date>
        <dc:creator>
          <cc:Agent>
            <dc:title>nlyl</dc:title>
          </cc:Agent>
        </dc:creator>
        <dc:rights>
          <cc:Agent>
            <dc:title>public domain</dc:title>
          </cc:Agent>
        </dc:rights>
        <dc:publisher>
          <cc:Agent>
            <dc:title>openclipart.org</dc:title>
          </cc:Agent>
        </dc:publisher>
        <dc:subject>
          <rdf:Bag>
            <rdf:li>school</rdf:li>
            <rdf:li>education</rdf:li>
            <rdf:li>book</rdf:li>
            <rdf:li>study</rdf:li>
            <rdf:li>public_domain</rdf:li>
            <rdf:li>subject</rdf:li>
            <rdf:li>notebook</rdf:li>
            <rdf:li>class</rdf:li>
            <rdf:li>clipart</rdf:li>
          </rdf:Bag>
        </dc:subject>
        <dc:description>A tan notebook</dc:description>
      </cc:Work>
      <cc:License
         rdf:about="http://web.resource.org/cc/PublicDomain">
        <cc:permits
           rdf:resource="http://web.resource.org/cc/Reproduction" />
        <cc:permits
           rdf:resource="http://web.resource.org/cc/Distribution" />
        <cc:permits
           rdf:resource="http://web.resource.org/cc/DerivativeWorks" />
      </cc:License>
    </rdf:RDF>
  </metadata>
  <g
     inkscape:label="Layer 1"
     inkscape:groupmode="layer"
     id="layer1"
     transform="translate(-70.65,-97.730552)">
    <rect
       y="170.49495"
       x="144.86816"
       height="571.29816"
       width="437.29819"
       id="rect2227"
       style="opacity:1;fill:#000000;fill-opacity:1;fill-rule:evenodd;stroke:#000000;stroke-width:4.96730852;stroke-linecap:round;stroke-miterlimit:4;stroke-dasharray:none;stroke-opacity:1;filter:url(#filter3623)" />
    <path
       sodipodi:nodetypes="ccccc"
       id="path4320"
       d="M 153.88374,191.97669 C 149.44275,186.93205 132.29148,167.82346 98.55888,189.57399 C 104.32506,160.56815 138.6059,166.01551 150.50201,174.8231 L 156.23652,179.94544 C 161.24529,187.9716 160.13641,191.75955 153.88374,191.97669 z "
       style="opacity:1;fill:none;fill-opacity:1;fill-rule:evenodd;stroke:#000000;stroke-width:3.23099995;stroke-linecap:round;stroke-miterlimit:4;stroke-dasharray:none;stroke-opacity:1" />
    <rect
       style="opacity:1;fill:#d9bb61;fill-opacity:1;fill-rule:evenodd;stroke:#000000;stroke-width:4.96730852;stroke-linecap:round;stroke-miterlimit:4;stroke-dasharray:none;stroke-opacity:1"
       id="rect4318"
       width="437.29819"
       height="571.29816"
       x="144.86816"
       y="170.49495" />
    <rect
       style="opacity:1;fill:#e5e5e5;fill-opacity:0.98431373;fill-rule:evenodd;stroke:#141111;stroke-width:0.89999998;stroke-linecap:round;stroke-miterlimit:4;stroke-dasharray:none;stroke-opacity:1"
       id="rect4316"
       width="437.31543"
       height="567.31543"
       x="138.85954"
       y="172.48634" />
    <rect
       y="174.48634"
       x="134.85954"
       height="567.31543"
       width="437.31543"
       id="rect4314"
       style="opacity:1;fill:#e5e5e5;fill-opacity:0.98431373;fill-rule:evenodd;stroke:#141111;stroke-width:0.89999998;stroke-linecap:round;stroke-miterlimit:4;stroke-dasharray:none;stroke-opacity:1" />
    <rect
       style="opacity:1;fill:#d9bb61;fill-opacity:1;fill-rule:evenodd;stroke:#000000;stroke-width:4.95006132;stroke-linecap:round;stroke-miterlimit:4;stroke-dasharray:none;stroke-opacity:1"
       id="rect3137"
       width="437.31543"
       height="567.31543"
       x="124.85954"
       y="184.48634" />
    <rect
       style="opacity:1;fill:#e5e5e5;fill-opacity:0.98431373;fill-rule:evenodd;stroke:#141111;stroke-width:0.89999998;stroke-linecap:round;stroke-miterlimit:4;stroke-dasharray:none;stroke-opacity:1"
       id="rect3343"
       width="437.31543"
       height="567.31543"
       x="130.85954"
       y="178.48634" />
    <path
       style="opacity:1;fill:#000000;fill-opacity:1;fill-rule:evenodd;stroke:#000000;stroke-width:5.31444407;stroke-linecap:round;stroke-miterlimit:4;stroke-dasharray:none;stroke-opacity:1"
       d="M 417.30721,191.11957 C 541.88656,299.517 554.88434,310.78938 555.83846,311.61957 L 555.83846,310.71332 L 555.83846,191.11957 L 418.36971,191.11957 L 417.30721,191.11957 z "
       id="rect3155" />
    <rect
       y="184.48634"
       x="124.85954"
       height="567.31543"
       width="437.31543"
       id="rect3261"
       style="opacity:1;fill:#007cff;fill-opacity:1;fill-rule:evenodd;stroke:#000000;stroke-width:4.95006131999999965;stroke-linecap:round;stroke-miterlimit:4;stroke-dasharray:none;stroke-opacity:1" />
    <path
       id="path3182"
       d="M 417.30721,745.61957 C 541.88656,637.22214 554.88434,625.94976 555.83846,625.11957 L 555.83846,626.02582 L 555.83846,745.61957 L 418.36971,745.61957 L 417.30721,745.61957 z "
       style="opacity:1;fill:#000000;fill-opacity:1;fill-rule:evenodd;stroke:#000000;stroke-width:5.31444407;stroke-linecap:round;stroke-miterlimit:4;stroke-dasharray:none;stroke-opacity:1" />
    <path
       id="path3263"
       d="M 417.30721,191.11957 C 541.88656,299.517 554.88434,310.78938 555.83846,311.61957 L 555.83846,310.71332 L 555.83846,191.11957 L 418.36971,191.11957 L 417.30721,191.11957 z "
       style="opacity:1;fill:#000000;fill-opacity:1;fill-rule:evenodd;stroke:#000000;stroke-width:5.31444407;stroke-linecap:round;stroke-miterlimit:4;stroke-dasharray:none;stroke-opacity:1" />
    <rect
       style="opacity:1;fill:#000000;fill-opacity:1;fill-rule:evenodd;stroke:#000000;stroke-width:3.23099995;stroke-linecap:round;stroke-miterlimit:4;stroke-dasharray:none;stroke-opacity:1"
       id="rect3184"
       width="42.021141"
       height="567.80042"
       x="124.64998"
       y="184.27679" />
    <path
       style="opacity:1;fill:#000000;fill-opacity:1;fill-rule:evenodd;stroke:#000000;stroke-width:5.31444407;stroke-linecap:round;stroke-miterlimit:4;stroke-dasharray:none;stroke-opacity:1"
       d="M 417.30721,745.61957 C 541.88656,637.22214 554.88434,625.94976 555.83846,625.11957 L 555.83846,626.02582 L 555.83846,745.61957 L 418.36971,745.61957 L 417.30721,745.61957 z "
       id="path3265" />
    <path
       style="opacity:1;fill:none;fill-opacity:1;fill-rule:evenodd;stroke:#000000;stroke-width:3.148242;stroke-linecap:round;stroke-miterlimit:4;stroke-dasharray:none;stroke-opacity:1"
       d="M 98.07768,207.25763 C 113.60944,193.09936 127.86257,191.03304 140.18158,207.25763 L 140.18158,745.284 C 127.55514,733.29839 113.90994,729.98389 98.07768,745.284 L 98.07768,207.25763 z "
       id="rect3186"
       sodipodi:nodetypes="ccccc" />
    <rect
       y="184.27679"
       x="124.64998"
       height="567.80042"
       width="42.021141"
       id="rect3267"
       style="opacity:1;fill:#000000;fill-opacity:1;fill-rule:evenodd;stroke:#000000;stroke-width:3.23099995;stroke-linecap:round;stroke-miterlimit:4;stroke-dasharray:none;stroke-opacity:1" />
    <path
       style="opacity:1;fill:none;fill-opacity:1;fill-rule:evenodd;stroke:#000000;stroke-width:3.23099995;stroke-linecap:round;stroke-miterlimit:4;stroke-dasharray:none;stroke-opacity:1"
       d="M 121.6503,180.86763 C 114.23367,180.62154 106.35409,184.96106 98.11906,192.89888 L 98.11906,205.24263 C 113.87763,193.00553 127.59565,195.05233 140.15031,205.24263 L 140.15031,192.89888 C 134.38712,184.87272 128.1944,181.08477 121.6503,180.86763 z "
       id="path3196"
       sodipodi:nodetypes="cccccc" />
    <rect
       style="opacity:1;fill:#000000;fill-opacity:1;fill-rule:evenodd;stroke:#000000;stroke-width:2.77026916;stroke-linecap:round;stroke-miterlimit:4;stroke-dasharray:none;stroke-opacity:1"
       id="rect3269"
       width="30.866371"
       height="568.26117"
       x="136.03513"
       y="184.04643" />
    <path
       sodipodi:nodetypes="cccccc"
       id="path3203"
       d="M 121.6503,210.86763 C 114.23367,210.62154 106.35409,214.96106 98.11906,222.89888 L 98.11906,235.24263 C 113.87763,223.00553 127.59565,225.05233 140.15031,235.24263 L 140.15031,222.89888 C 134.38712,214.87272 128.1944,211.08477 121.6503,210.86763 z "
       style="opacity:1;fill:none;fill-opacity:1;fill-rule:evenodd;stroke:#000000;stroke-width:3.23099995;stroke-linecap:round;stroke-miterlimit:4;stroke-dasharray:none;stroke-opacity:1" />
    <rect
       ry="34.9035"
       y="304.27679"
       x="214.64999"
       height="131.26176"
       width="266.15265"
       id="rect3271"
       style="opacity:1;fill:none;fill-opacity:1;fill-rule:evenodd;stroke:#000000;stroke-width:3.23099995;stroke-linecap:round;stroke-miterlimit:4;stroke-dasharray:none;stroke-opacity:1" />
    <path
       sodipodi:nodetypes="cccccc"
       id="path3205"
       d="M 121.6503,240.86763 C 114.23367,240.62154 106.35409,244.96106 98.11906,252.89888 L 98.11906,265.24263 C 113.87763,253.00553 127.59565,255.05233 140.15031,265.24263 L 140.15031,252.89888 C 134.38712,244.87272 128.1944,241.08477 121.6503,240.86763 z "
       style="opacity:1;fill:none;fill-opacity:1;fill-rule:evenodd;stroke:#000000;stroke-width:3.23099995;stroke-linecap:round;stroke-miterlimit:4;stroke-dasharray:none;stroke-opacity:1" />
    <rect
       style="opacity:1;fill:#000000;fill-opacity:1;fill-rule:evenodd;stroke:#000000;stroke-width:2.35414481;stroke-linecap:round;stroke-miterlimit:4;stroke-dasharray:none;stroke-opacity:1"
       id="rect3273"
       width="217.68318"
       height="85.199425"
       x="240.69009"
       y="326.70618"
       ry="22.655174" />
    <path
       style="opacity:1;fill:none;fill-opacity:1;fill-rule:evenodd;stroke:#000000;stroke-width:3.23099995;stroke-linecap:round;stroke-miterlimit:4;stroke-dasharray:none;stroke-opacity:1"
       d="M 121.6503,270.86763 C 114.23367,270.62154 106.35409,274.96106 98.11906,282.89888 L 98.11906,295.24263 C 113.87763,283.00553 127.59565,285.05233 140.15031,295.24263 L 140.15031,282.89888 C 134.38712,274.87272 128.1944,271.08477 121.6503,270.86763 z "
       id="path3207"
       sodipodi:nodetypes="cccccc" />
    <path
       sodipodi:nodetypes="cccccc"
       id="path3209"
       d="M 121.6503,304.86763 C 114.23367,304.62154 106.35409,308.96106 98.11906,316.89888 L 98.11906,329.24263 C 113.87763,317.00553 127.59565,319.05233 140.15031,329.24263 L 140.15031,316.89888 C 134.38712,308.87272 128.1944,305.08477 121.6503,304.86763 z "
       style="opacity:1;fill:none;fill-opacity:1;fill-rule:evenodd;stroke:#000000;stroke-width:3.23099995;stroke-linecap:round;stroke-miterlimit:4;stroke-dasharray:none;stroke-opacity:1" />
    <path
       style="opacity:1;fill:none;fill-opacity:1;fill-rule:evenodd;stroke:#000000;stroke-width:3.23099995;stroke-linecap:round;stroke-miterlimit:4;stroke-dasharray:none;stroke-opacity:1"
       d="M 121.6503,334.86763 C 114.23367,334.62154 106.35409,338.96106 98.11906,346.89888 L 98.11906,359.24263 C 113.87763,347.00553 127.59565,349.05233 140.15031,359.24263 L 140.15031,346.89888 C 134.38712,338.87272 128.1944,335.08477 121.6503,334.86763 z "
       id="path3211"
       sodipodi:nodetypes="cccccc" />
    <path
       style="opacity:1;fill:none;fill-opacity:1;fill-rule:evenodd;stroke:#000000;stroke-width:3.23099995;stroke-linecap:round;stroke-miterlimit:4;stroke-dasharray:none;stroke-opacity:1"
       d="M 121.6503,364.86763 C 114.23367,364.62154 106.35409,368.96106 98.11906,376.89888 L 98.11906,389.24263 C 113.87763,377.00553 127.59565,379.05233 140.15031,389.24263 L 140.15031,376.89888 C 134.38712,368.87272 128.1944,365.08477 121.6503,364.86763 z "
       id="path3213"
       sodipodi:nodetypes="cccccc" />
    <path
       sodipodi:nodetypes="cccccc"
       id="path3215"
       d="M 121.6503,394.86763 C 114.23367,394.62154 106.35409,398.96106 98.11906,406.89888 L 98.11906,419.24263 C 113.87763,407.00553 127.59565,409.05233 140.15031,419.24263 L 140.15031,406.89888 C 134.38712,398.87272 128.1944,395.08477 121.6503,394.86763 z "
       style="opacity:1;fill:none;fill-opacity:1;fill-rule:evenodd;stroke:#000000;stroke-width:3.23099995;stroke-linecap:round;stroke-miterlimit:4;stroke-dasharray:none;stroke-opacity:1" />
    <path
       sodipodi:nodetypes="cccccc"
       id="path3217"
       d="M 122.06294,427.19214 C 114.6463,426.94605 106.76672,431.28557 98.53169,439.22339 L 98.53169,451.56714 C 114.29026,439.33004 128.00828,441.37684 140.56294,451.56714 L 140.56294,439.22339 C 134.79975,431.19723 128.60703,427.40928 122.06294,427.19214 z "
       style="opacity:1;fill:none;fill-opacity:1;fill-rule:evenodd;stroke:#000000;stroke-width:3.23099995;stroke-linecap:round;stroke-miterlimit:4;stroke-dasharray:none;stroke-opacity:1" />
    <path
       style="opacity:1;fill:none;fill-opacity:1;fill-rule:evenodd;stroke:#000000;stroke-width:3.23099995;stroke-linecap:round;stroke-miterlimit:4;stroke-dasharray:none;stroke-opacity:1"
       d="M 122.06294,457.19214 C 114.6463,456.94605 106.76672,461.28557 98.53169,469.22339 L 98.53169,481.56714 C 114.29026,469.33004 128.00828,471.37684 140.56294,481.56714 L 140.56294,469.22339 C 134.79975,461.19723 128.60703,457.40928 122.06294,457.19214 z "
       id="path3219"
       sodipodi:nodetypes="cccccc" />
    <path
       style="opacity:1;fill:none;fill-opacity:1;fill-rule:evenodd;stroke:#000000;stroke-width:3.23099995;stroke-linecap:round;stroke-miterlimit:4;stroke-dasharray:none;stroke-opacity:1"
       d="M 122.06294,487.19214 C 114.6463,486.94605 106.76672,491.28557 98.53169,499.22339 L 98.53169,511.56714 C 114.29026,499.33004 128.00828,501.37684 140.56294,511.56714 L 140.56294,499.22339 C 134.79975,491.19723 128.60703,487.40928 122.06294,487.19214 z "
       id="path3221"
       sodipodi:nodetypes="cccccc" />
    <path
       sodipodi:nodetypes="cccccc"
       id="path3223"
       d="M 122.06294,517.19214 C 114.6463,516.94605 106.76672,521.28557 98.53169,529.22339 L 98.53169,541.56714 C 114.29026,529.33004 128.00828,531.37684 140.56294,541.56714 L 140.56294,529.22339 C 134.79975,521.19723 128.60703,517.40928 122.06294,517.19214 z "
       style="opacity:1;fill:none;fill-opacity:1;fill-rule:evenodd;stroke:#000000;stroke-width:3.23099995;stroke-linecap:round;stroke-miterlimit:4;stroke-dasharray:none;stroke-opacity:1" />
    <path
       style="opacity:1;fill:none;fill-opacity:1;fill-rule:evenodd;stroke:#000000;stroke-width:3.23099995;stroke-linecap:round;stroke-miterlimit:4;stroke-dasharray:none;stroke-opacity:1"
       d="M 122.06294,551.19214 C 114.6463,550.94605 106.76672,555.28557 98.53169,563.22339 L 98.53169,575.56714 C 114.29026,563.33004 128.00828,565.37684 140.56294,575.56714 L 140.56294,563.22339 C 134.79975,555.19723 128.60703,551.40928 122.06294,551.19214 z "
       id="path3225"
       sodipodi:nodetypes="cccccc" />
    <path
       sodipodi:nodetypes="cccccc"
       id="path3227"
       d="M 122.06294,581.19214 C 114.6463,580.94605 106.76672,585.28557 98.53169,593.22339 L 98.53169,605.56714 C 114.29026,593.33004 128.00828,595.37684 140.56294,605.56714 L 140.56294,593.22339 C 134.79975,585.19723 128.60703,581.40928 122.06294,581.19214 z "
       style="opacity:1;fill:none;fill-opacity:1;fill-rule:evenodd;stroke:#000000;stroke-width:3.23099995;stroke-linecap:round;stroke-miterlimit:4;stroke-dasharray:none;stroke-opacity:1" />
    <path
       sodipodi:nodetypes="cccccc"
       id="path3229"
       d="M 122.06294,611.19214 C 114.6463,610.94605 106.76672,615.28557 98.53169,623.22339 L 98.53169,635.56714 C 114.29026,623.33004 128.00828,625.37684 140.56294,635.56714 L 140.56294,623.22339 C 134.79975,615.19723 128.60703,611.40928 122.06294,611.19214 z "
       style="opacity:1;fill:none;fill-opacity:1;fill-rule:evenodd;stroke:#000000;stroke-width:3.23099995;stroke-linecap:round;stroke-miterlimit:4;stroke-dasharray:none;stroke-opacity:1" />
    <path
       style="opacity:1;fill:none;fill-opacity:1;fill-rule:evenodd;stroke:#000000;stroke-width:3.23099995;stroke-linecap:round;stroke-miterlimit:4;stroke-dasharray:none;stroke-opacity:1"
       d="M 122.06294,641.19214 C 114.6463,640.94605 106.76672,645.28557 98.53169,653.22339 L 98.53169,665.56714 C 114.29026,653.33004 128.00828,655.37684 140.56294,665.56714 L 140.56294,653.22339 C 134.79975,645.19723 128.60703,641.40928 122.06294,641.19214 z "
       id="path3231"
       sodipodi:nodetypes="cccccc" />
    <path
       style="opacity:1;fill:none;fill-opacity:1;fill-rule:evenodd;stroke:#000000;stroke-width:3.23099995;stroke-linecap:round;stroke-miterlimit:4;stroke-dasharray:none;stroke-opacity:1"
       d="M 121.6503,670.86762 C 114.23367,670.62153 106.35409,674.96105 98.11906,682.89887 L 98.11906,695.24262 C 113.87763,683.00552 127.59565,685.05232 140.15031,695.24262 L 140.15031,682.89887 C 134.38712,674.87271 128.1944,671.08476 121.6503,670.86762 z "
       id="path3233"
       sodipodi:nodetypes="cccccc" />
    <path
       style="opacity:1;fill:none;fill-opacity:1;fill-rule:evenodd;stroke:#000000;stroke-width:3.23099995;stroke-linecap:round;stroke-miterlimit:4;stroke-dasharray:none;stroke-opacity:1"
       d="M 121.6503,700.86762 C 114.23367,700.62153 106.35409,704.96105 98.11906,712.89887 L 98.11906,725.24262 C 113.87763,713.00552 127.59565,715.05232 140.15031,725.24262 L 140.15031,712.89887 C 134.38712,704.87271 128.1944,701.08476 121.6503,700.86762 z "
       id="path3235"
       sodipodi:nodetypes="cccccc" />
    <path
       sodipodi:nodetypes="cccccc"
       id="path3239"
       d="M 121.6503,762.01129 C 87.283434,752.15104 105.14954,750.69608 96.91549,742.75862 L 98.11906,744.8577 C 123.18127,719.88022 130.34747,744.04074 140.15031,744.8577 L 140.15031,747.5729 C 134.38712,755.59906 128.1944,761.79415 121.6503,762.01129 z "
       style="opacity:1;fill:none;fill-opacity:1;fill-rule:evenodd;stroke:#000000;stroke-width:3.23099995;stroke-linecap:round;stroke-miterlimit:4;stroke-dasharray:none;stroke-opacity:1" />
    <rect
       y="184.04643"
       x="136.03513"
       height="568.26117"
       width="30.866371"
       id="rect3241"
       style="opacity:1;fill:#000000;fill-opacity:1;fill-rule:evenodd;stroke:#000000;stroke-width:2.77026916;stroke-linecap:round;stroke-miterlimit:4;stroke-dasharray:none;stroke-opacity:1" />
    <rect
       style="opacity:1;fill:#e7e7d9;fill-opacity:1;fill-rule:evenodd;stroke:#000000;stroke-width:3.23099995;stroke-linecap:round;stroke-miterlimit:4;stroke-dasharray:none;stroke-opacity:1"
       id="rect3243"
       width="266.15265"
       height="131.26176"
       x="214.64999"
       y="304.27679"
       ry="34.9035" />
    <text
       xml:space="preserve"
       style="font-size:18px;font-style:normal;font-variant:normal;font-weight:normal;font-stretch:normal;line-height:125%;letter-spacing:0px;word-spacing:0px;fill:#000000;fill-opacity:1;stroke:none;font-family:Arial;-inkscape-font-specification:Arial"
       x="266.33621"
       y="404.56079"
       id="text3028"
       sodipodi:linespacing="125%"><tspan
         sodipodi:role="line"
         id="tspan3030"
         x="266.33621"
         y="404.56079"
         style="font-size:100px;font-style:normal;font-variant:normal;font-weight:bold;font-stretch:normal;font-family:Arial;-inkscape-font-specification:Arial Bold">OM</tspan></text>
  </g>
</svg>
