<?xml version="1.0" encoding="UTF-8" standalone="no"?>
<!-- Created with Inkscape (http://www.inkscape.org/) -->

<svg
   xmlns:dc="http://purl.org/dc/elements/1.1/"
   xmlns:cc="http://creativecommons.org/ns#"
   xmlns:rdf="http://www.w3.org/1999/02/22-rdf-syntax-ns#"
   xmlns:svg="http://www.w3.org/2000/svg"
   xmlns="http://www.w3.org/2000/svg"
   xmlns:sodipodi="http://sodipodi.sourceforge.net/DTD/sodipodi-0.dtd"
   xmlns:inkscape="http://www.inkscape.org/namespaces/inkscape"
   width="225"
   height="225"
   id="svg2"
   version="1.1"
   inkscape:version="0.48.4 r9939"
   sodipodi:docname="logo-small-web.svg">
  <defs
     id="defs4" />
  <sodipodi:namedview
     id="base"
     pagecolor="#ffffff"
     bordercolor="#666666"
     borderopacity="1.0"
     inkscape:pageopacity="0.0"
     inkscape:pageshadow="2"
     inkscape:zoom="1.4"
     inkscape:cx="-12.953924"
     inkscape:cy="131.05404"
     inkscape:document-units="px"
     inkscape:current-layer="layer1"
     showgrid="false"
     fit-margin-top="4"
     fit-margin-left="4"
     fit-margin-bottom="4"
     fit-margin-right="4"
     units="pt"
     inkscape:window-width="1078"
     inkscape:window-height="749"
     inkscape:window-x="680"
     inkscape:window-y="210"
     inkscape:window-maximized="0"
     showguides="true"
     inkscape:guide-bbox="true" />
  <metadata
     id="metadata7">
    <rdf:RDF>
      <cc:Work
         rdf:about="">
        <dc:format>image/svg+xml</dc:format>
        <dc:type
           rdf:resource="http://purl.org/dc/dcmitype/StillImage" />
        <dc:title></dc:title>
      </cc:Work>
    </rdf:RDF>
  </metadata>
  <g
     inkscape:label="Layer 1"
     inkscape:groupmode="layer"
     id="layer1"
     transform="translate(86.538272,-311.37707)">
    <g
       style="font-size:40px;font-style:normal;font-weight:normal;line-height:125%;letter-spacing:0px;word-spacing:0px;fill:#000000;fill-opacity:1;stroke:none;font-family:Sans"
       id="text2985">
      <path
         d="m -28.735867,471.69405 c -6.808045,0 -13.156039,-1.196 -19.044,-3.588 -5.888027,-2.48399 -10.994022,-5.84199 -15.318,-10.074 -4.324013,-4.32398 -7.72801,-9.38397 -10.212,-15.18 -2.484005,-5.79596 -3.726004,-12.05196 -3.726,-18.768 -4e-6,-6.80794 1.241995,-13.10994 3.726,-18.906 2.48399,-5.88792 5.887987,-10.99392 10.212,-15.318 4.323978,-4.32391 9.429973,-7.68191 15.318,-10.074 5.887961,-2.4839 12.235955,-3.7259 19.044,-3.726 6.899941,1e-4 13.293935,1.2421 19.1820004,3.726 5.9799225,2.48409 11.1319174,5.88809 15.456,10.212 4.4159086,4.23208 7.8659056,9.29208 10.3499996,15.18 2.575901,5.79606 3.863899,12.05206 3.864,18.768 -1.01e-4,6.71604 -1.288099,12.97204 -3.864,18.768 -2.484094,5.79603 -5.934091,10.85602 -10.3499996,15.18 -4.3240826,4.23201 -9.4760775,7.59001 -15.456,10.074 -5.8880654,2.484 -12.2820594,3.726 -19.1820004,3.726 m 0.276,-74.934 c -3.588049,8e-5 -6.946045,0.69008 -10.074,2.07 -3.036039,1.38007 -5.658036,3.26607 -7.866,5.658 -2.208032,2.39207 -3.95603,5.24407 -5.244,8.556 -1.288028,3.22006 -1.932027,6.76206 -1.932,10.626 -2.7e-5,3.86405 0.643972,7.49804 1.932,10.902 1.28797,3.31204 3.035968,6.21003 5.244,8.694 2.299963,2.39203 5.013961,4.27803 8.142,5.658 3.127954,1.38002 6.485951,2.07002 10.074,2.07 3.495944,2e-5 6.761941,-0.68998 9.798,-2.07 3.035935,-1.37997 5.657932,-3.26597 7.866,-5.658 2.2079277,-2.39197 3.9559259,-5.24396 5.2440004,-8.556 1.287923,-3.31196 1.9319223,-6.85395 1.932,-10.626 -7.77e-5,-3.86395 -0.644077,-7.45194 -1.932,-10.764 -1.2880745,-3.31194 -3.0820727,-6.20993 -5.3820004,-8.694 -2.208068,-2.48393 -4.830065,-4.41593 -7.866,-5.796 -3.036059,-1.37992 -6.348056,-2.06992 -9.936,-2.07"
         style="fill:#23afe5;fill-opacity:1"
         id="path3159" />
      <path
         d="m 31.945321,469.90005 0,-92.046 30.222,0 18.216,60.582 18.216,-60.582 30.359999,0 0,92.046 -21.666,0 0.828,-69.138 -19.871999,69.138 -15.594,0 -19.872,-69.138 0.69,69.138 -21.528,0"
         style="font-size:138px;font-variant:normal;font-weight:bold;font-stretch:normal;text-align:center;text-anchor:middle;font-family:AvantGardeMdITC;-inkscape-font-specification:AvantGardeMdITC Bold"
         id="path3161" />
    </g>
  </g>
</svg>
