<?xml version="1.0" encoding="UTF-8" standalone="no"?>
<!-- Created with Inkscape (http://www.inkscape.org/) -->

<svg
   xmlns:dc="http://purl.org/dc/elements/1.1/"
   xmlns:cc="http://creativecommons.org/ns#"
   xmlns:rdf="http://www.w3.org/1999/02/22-rdf-syntax-ns#"
   xmlns:svg="http://www.w3.org/2000/svg"
   xmlns="http://www.w3.org/2000/svg"
   xmlns:sodipodi="http://sodipodi.sourceforge.net/DTD/sodipodi-0.dtd"
   xmlns:inkscape="http://www.inkscape.org/namespaces/inkscape"
   width="32px"
   height="32px"
   id="svg4346"
   version="1.1"
   inkscape:version="0.48.5 r10040"
   sodipodi:docname="bullet-list.svg">
  <defs
     id="defs4348" />
  <sodipodi:namedview
     id="base"
     pagecolor="#ffffff"
     bordercolor="#666666"
     borderopacity="1.0"
     inkscape:pageopacity="0.0"
     inkscape:pageshadow="2"
     inkscape:zoom="15.836083"
     inkscape:cx="3.0227634"
     inkscape:cy="16.676347"
     inkscape:current-layer="layer1"
     showgrid="true"
     inkscape:grid-bbox="true"
     inkscape:document-units="px"
     inkscape:window-width="1600"
     inkscape:window-height="837"
     inkscape:window-x="-8"
     inkscape:window-y="-8"
     inkscape:window-maximized="1">
    <inkscape:grid
       type="xygrid"
       id="grid3865" />
  </sodipodi:namedview>
  <metadata
     id="metadata4351">
    <rdf:RDF>
      <cc:Work
         rdf:about="">
        <dc:format>image/svg+xml</dc:format>
        <dc:type
           rdf:resource="http://purl.org/dc/dcmitype/StillImage" />
        <dc:title />
      </cc:Work>
    </rdf:RDF>
  </metadata>
  <g
     id="layer1"
     inkscape:label="Layer 1"
     inkscape:groupmode="layer">
    <rect
       style="fill:#000000;fill-opacity:1;fill-rule:nonzero;stroke:#000000;stroke-width:0;stroke-linecap:square;stroke-linejoin:miter;stroke-miterlimit:4;stroke-opacity:1;stroke-dasharray:none;stroke-dashoffset:0"
       id="rect3785-7-4"
       width="4"
       height="23"
       x="-5.0382977"
       y="9"
       ry="0"
       transform="matrix(0,-1,1,0,0,0)" />
    <rect
       style="fill:#000000;fill-opacity:1;fill-rule:nonzero;stroke:#000000;stroke-width:0;stroke-linecap:square;stroke-linejoin:miter;stroke-miterlimit:4;stroke-opacity:1;stroke-dasharray:none;stroke-dashoffset:0"
       id="rect3785-7-4-9"
       width="4"
       height="23"
       x="-13.756954"
       y="9"
       ry="0"
       transform="matrix(0,-1,1,0,0,0)" />
    <rect
       style="fill:#000000;fill-opacity:1;fill-rule:nonzero;stroke:#000000;stroke-width:0;stroke-linecap:square;stroke-linejoin:miter;stroke-miterlimit:4;stroke-opacity:1;stroke-dasharray:none;stroke-dashoffset:0"
       id="rect3785-7-4-9-1"
       width="4"
       height="23"
       x="-22.387848"
       y="9"
       ry="0"
       transform="matrix(0,-1,1,0,0,0)" />
    <path
       sodipodi:type="arc"
       style="fill:#00800f;fill-opacity:0.94117647;stroke:#00800f;stroke-width:2;stroke-miterlimit:4;stroke-opacity:0.94117647;stroke-dasharray:none"
       id="path3011-7"
       sodipodi:cx="1.5"
       sodipodi:cy="4.5"
       sodipodi:rx="1.5"
       sodipodi:ry="1.5"
       d="m 3,4.5 a 1.5,1.5 0 1 1 -3,0 1.5,1.5 0 1 1 3,0 z"
       transform="matrix(1.2,0,0,1.2,2.237,-2.3902226)" />
    <path
       sodipodi:type="arc"
       style="fill:#00800f;fill-opacity:0.94117647;stroke:#00800f;stroke-width:2;stroke-miterlimit:4;stroke-opacity:0.94117647;stroke-dasharray:none"
       id="path3011-4"
       sodipodi:cx="1.5"
       sodipodi:cy="4.5"
       sodipodi:rx="1.5"
       sodipodi:ry="1.5"
       d="m 3,4.5 a 1.5,1.5 0 1 1 -3,0 1.5,1.5 0 1 1 3,0 z"
       transform="matrix(1.2,0,0,1.2,2.2369906,6.3180174)" />
    <path
       sodipodi:type="arc"
       style="fill:#00800f;fill-opacity:0.94117647;stroke:#00800f;stroke-width:2;stroke-miterlimit:4;stroke-opacity:0.94117647;stroke-dasharray:none"
       id="path3011-0"
       sodipodi:cx="1.5"
       sodipodi:cy="4.5"
       sodipodi:rx="1.5"
       sodipodi:ry="1.5"
       d="m 3,4.5 a 1.5,1.5 0 1 1 -3,0 1.5,1.5 0 1 1 3,0 z"
       transform="matrix(1.2,0,0,1.2,2.237,15.019706)" />
    <rect
       style="fill:#000000;fill-opacity:1;fill-rule:nonzero;stroke:#000000;stroke-width:0;stroke-linecap:square;stroke-linejoin:miter;stroke-miterlimit:4;stroke-opacity:1;stroke-dasharray:none;stroke-dashoffset:0"
       id="rect3785-7-4-9-1-1"
       width="4"
       height="23"
       x="-30.956167"
       y="8.9896545"
       ry="0"
       transform="matrix(0,-1,1,0,0,0)" />
    <path
       sodipodi:type="arc"
       style="fill:#00800f;fill-opacity:0.94117647;stroke:#00800f;stroke-width:2;stroke-miterlimit:4;stroke-opacity:0.94117647;stroke-dasharray:none"
       id="path3011-0-7"
       sodipodi:cx="1.5"
       sodipodi:cy="4.5"
       sodipodi:rx="1.5"
       sodipodi:ry="1.5"
       d="m 3,4.5 a 1.5,1.5 0 1 1 -3,0 1.5,1.5 0 1 1 3,0 z"
       transform="matrix(1.2,0,0,1.2,2.2266496,23.588029)" />
  </g>
</svg>
