<?xml version="1.0" encoding="UTF-8" standalone="no"?>
<!-- Created with Inkscape (http://www.inkscape.org/) -->

<svg
   xmlns:dc="http://purl.org/dc/elements/1.1/"
   xmlns:cc="http://creativecommons.org/ns#"
   xmlns:rdf="http://www.w3.org/1999/02/22-rdf-syntax-ns#"
   xmlns:svg="http://www.w3.org/2000/svg"
   xmlns="http://www.w3.org/2000/svg"
   xmlns:sodipodi="http://sodipodi.sourceforge.net/DTD/sodipodi-0.dtd"
   xmlns:inkscape="http://www.inkscape.org/namespaces/inkscape"
   width="32px"
   height="32px"
   id="svg3122"
   version="1.1"
   inkscape:version="0.48.4 r9939"
   sodipodi:docname="New document 3">
  <sodipodi:namedview
     id="base"
     pagecolor="#ffffff"
     bordercolor="#666666"
     borderopacity="1.0"
     inkscape:pageopacity="0.0"
     inkscape:pageshadow="2"
     inkscape:zoom="11.197802"
     inkscape:cx="1.8007848"
     inkscape:cy="19.57213"
     inkscape:current-layer="svg3122"
     showgrid="true"
     inkscape:grid-bbox="true"
     inkscape:document-units="px"
     inkscape:window-width="1600"
     inkscape:window-height="838"
     inkscape:window-x="-8"
     inkscape:window-y="-8"
     inkscape:window-maximized="1" />
  <defs
     id="defs3124" />
  <metadata
     id="metadata3127">
    <rdf:RDF>
      <cc:Work
         rdf:about="">
        <dc:format>image/svg+xml</dc:format>
        <dc:type
           rdf:resource="http://purl.org/dc/dcmitype/StillImage" />
        <dc:title></dc:title>
      </cc:Work>
    </rdf:RDF>
  </metadata>
  <g
     id="layer1"
     inkscape:label="Layer 1"
     inkscape:groupmode="layer">
    <g
       id="layer1-7"
       transform="matrix(2.1428571,0,0,2.1428571,-1.1428571,-2221.919)">
      <path
         inkscape:connector-curvature="0"
         d="M 13,3 3,8 13,13"
         id="path3791"
         style="fill:none;stroke:#1c45af;stroke-width:1px;stroke-linecap:butt;stroke-linejoin:miter;stroke-opacity:1"
         transform="translate(0,1036.3622)" />
      <path
         inkscape:connector-curvature="0"
         d="m -22.410713,-3.3303571 a 2.3660715,2.3660715 0 1 1 -4.732143,0 2.3660715,2.3660715 0 1 1 4.732143,0 z"
         id="path2985"
         style="fill:#000000;fill-opacity:1;stroke:none"
         transform="matrix(0.84528301,0,0,0.84528301,33.943395,1042.1773)" />
      <path
         inkscape:connector-curvature="0"
         d="m -22.410713,-3.3303571 a 2.3660715,2.3660715 0 1 1 -4.732143,0 2.3660715,2.3660715 0 1 1 4.732143,0 z"
         id="path2985-1"
         style="fill:#000000;fill-opacity:1;stroke:none"
         transform="matrix(0.84528301,0,0,0.84528301,33.943395,1052.1773)" />
      <path
         inkscape:connector-curvature="0"
         d="m -22.410713,-3.3303571 a 2.3660715,2.3660715 0 1 1 -4.732143,0 2.3660715,2.3660715 0 1 1 4.732143,0 z"
         id="path2985-1-7"
         style="fill:#000000;fill-opacity:1;stroke:none"
         transform="matrix(0.84528301,0,0,0.84528301,23.943395,1047.1773)" />
    </g>
  </g>
</svg>
