<?xml version="1.0" ?><svg height="32px" version="1.1" viewBox="0 0 32 32" width="32px" xmlns="http://www.w3.org/2000/svg" xmlns:sketch="http://www.bohemiancoding.com/sketch/ns" xmlns:xlink="http://www.w3.org/1999/xlink"><title/><desc/><defs/><g fill="none" fill-rule="evenodd" id="Page-1" stroke="none" stroke-width="1"><g fill="#157EFB" id="icon-124-printer-text"><path d="M7,11 L7,4.9973917 C7,3.89585781 7.89427625,3 8.99742191,3 L24.0025781,3 C25.1090746,3 26,3.89426273 26,4.9973917 L26,11 L7,11 L7,11 Z M6,27 L4.99428189,27 C3.3405687,27 2,25.6571128 2,24.0005775 L2,14.9994225 C2,13.3443507 3.34058566,12 4.99428189,12 L28.0057181,12 C29.6594313,12 31,13.3428872 31,14.9994225 L31,24.0005775 C31,25.6556493 29.6594143,27 28.0057181,27 L27,27 L27,19 L6,19 L6,27 L6,27 L6,27 Z M7,20 L7,28.000385 C7,29.1047419 7.89092539,30 8.99742191,30 L24.0025781,30 C25.1057238,30 26,29.1125667 26,28.000385 L26,20 L7,20 L7,20 Z M25,17 C25.5522848,17 26,16.5522848 26,16 C26,15.4477152 25.5522848,15 25,15 C24.4477152,15 24,15.4477152 24,16 C24,16.5522848 24.4477152,17 25,17 L25,17 Z M9,23 L9,24 L24,24 L24,23 L9,23 L9,23 Z M9,26 L9,27 L24,27 L24,26 L9,26 L9,26 Z" id="printer-text"/></g></g></svg>