<?xml version="1.0" encoding="UTF-8" standalone="no"?>
<svg
   xmlns:dc="http://purl.org/dc/elements/1.1/"
   xmlns:cc="http://creativecommons.org/ns#"
   xmlns:rdf="http://www.w3.org/1999/02/22-rdf-syntax-ns#"
   xmlns:svg="http://www.w3.org/2000/svg"
   xmlns="http://www.w3.org/2000/svg"
   xmlns:xlink="http://www.w3.org/1999/xlink"
   xmlns:sodipodi="http://sodipodi.sourceforge.net/DTD/sodipodi-0.dtd"
   xmlns:inkscape="http://www.inkscape.org/namespaces/inkscape"
   height="32px"
   id="Layer_1"
   style="enable-background:new 0 0 32 32;"
   version="1.1"
   viewBox="0 0 32 32"
   width="32px"
   xml:space="preserve"
   inkscape:version="0.48.4 r9939"
   sodipodi:docname="simulate.svg"><metadata
     id="metadata9"><rdf:RDF><cc:Work
         rdf:about=""><dc:format>image/svg+xml</dc:format><dc:type
           rdf:resource="http://purl.org/dc/dcmitype/StillImage" /></cc:Work></rdf:RDF></metadata><defs
     id="defs7"><linearGradient
       inkscape:collect="always"
       id="linearGradient3778"><stop
         style="stop-color:#507610;stop-opacity:1;"
         offset="0"
         id="stop3780" /><stop
         style="stop-color:#507610;stop-opacity:0;"
         offset="1"
         id="stop3782" /></linearGradient><linearGradient
       inkscape:collect="always"
       xlink:href="#linearGradient3778"
       id="linearGradient3784"
       x1="18.033897"
       y1="20.338984"
       x2="17.355932"
       y2="-13.288136"
       gradientUnits="userSpaceOnUse"
       gradientTransform="matrix(1.1117822,0,0,1.0566929,-3.2947801,-0.63469233)" /></defs><sodipodi:namedview
     pagecolor="#ffffff"
     bordercolor="#666666"
     borderopacity="1"
     objecttolerance="10"
     gridtolerance="10"
     guidetolerance="10"
     inkscape:pageopacity="0"
     inkscape:pageshadow="2"
     inkscape:window-width="1600"
     inkscape:window-height="838"
     id="namedview5"
     showgrid="false"
     inkscape:zoom="7.375"
     inkscape:cx="-6.5084746"
     inkscape:cy="15.186441"
     inkscape:window-x="-8"
     inkscape:window-y="-8"
     inkscape:window-maximized="1"
     inkscape:current-layer="Layer_1" /><path
     d="M 4.3846317,13.163466 19.89762,13.368249 14.360945,7.3937074 c -0.579414,-0.6252369 -1.65701,-1.7347247 -1.65701,-2.5140293 0,-1.4861182 1.853963,-3.2994377 3.70253,-3.2994377 0.826949,0 2.391871,1.5656336 2.993007,2.1501127 L 29.456594,14.180779 c 0.4932,0.512488 1.030962,1.107039 1.030962,2.208034 0,1.100994 -0.4345,1.631103 -1.006044,2.185378 L 18.721506,29.039584 c -0.601136,0.584478 -2.226685,1.592363 -3.053634,1.592363 -1.850125,0 -3.566939,-1.534446 -3.566939,-3.020564 0,-0.779305 1.021516,-2.083399 1.657012,-2.65731 l 6.139675,-5.544698 -15.362238,0 c -1.7193072,0 -2.9639363,-1.291708 -2.9639363,-2.959059 0,-1.667352 1.094041,-3.309543 2.813186,-3.28685 z"
     id="path3"
     inkscape:connector-curvature="0"
     sodipodi:nodetypes="scssscssccssscsss"
     style="fill:url(#linearGradient3784);fill-opacity:1;stroke:#4a6e0b;stroke-width:1.08388758;stroke-miterlimit:4;stroke-opacity:1;stroke-dasharray:none" /></svg>