<?xml version="1.0" encoding="UTF-8" standalone="no"?>
<svg
   xmlns:dc="http://purl.org/dc/elements/1.1/"
   xmlns:cc="http://creativecommons.org/ns#"
   xmlns:rdf="http://www.w3.org/1999/02/22-rdf-syntax-ns#"
   xmlns:svg="http://www.w3.org/2000/svg"
   xmlns="http://www.w3.org/2000/svg"
   xmlns:xlink="http://www.w3.org/1999/xlink"
   xmlns:sodipodi="http://sodipodi.sourceforge.net/DTD/sodipodi-0.dtd"
   xmlns:inkscape="http://www.inkscape.org/namespaces/inkscape"
   height="32px"
   id="Layer_1"
   style="enable-background:new 0 0 32 32;"
   version="1.1"
   viewBox="0 0 32 32"
   width="32px"
   xml:space="preserve"
   inkscape:version="0.48.4 r9939"
   sodipodi:docname="simulate-equation.svg"><metadata
     id="metadata9"><rdf:RDF><cc:Work
         rdf:about=""><dc:format>image/svg+xml</dc:format><dc:type
           rdf:resource="http://purl.org/dc/dcmitype/StillImage" /></cc:Work></rdf:RDF></metadata><defs
     id="defs7"><linearGradient
       inkscape:collect="always"
       id="linearGradient3778"><stop
         style="stop-color:#507610;stop-opacity:1;"
         offset="0"
         id="stop3780" /><stop
         style="stop-color:#507610;stop-opacity:0;"
         offset="1"
         id="stop3782" /></linearGradient><linearGradient
       inkscape:collect="always"
       xlink:href="#linearGradient3778"
       id="linearGradient3784"
       x1="18.033897"
       y1="20.338984"
       x2="17.355932"
       y2="-13.288136"
       gradientUnits="userSpaceOnUse"
       gradientTransform="matrix(1.1117822,0,0,1.0566929,-2.3456277,-0.63469233)" /></defs><sodipodi:namedview
     pagecolor="#ffffff"
     bordercolor="#666666"
     borderopacity="1"
     objecttolerance="10"
     gridtolerance="10"
     guidetolerance="10"
     inkscape:pageopacity="0"
     inkscape:pageshadow="2"
     inkscape:window-width="1600"
     inkscape:window-height="838"
     id="namedview5"
     showgrid="false"
     inkscape:zoom="7.375"
     inkscape:cx="-27.661017"
     inkscape:cy="15.186441"
     inkscape:window-x="-8"
     inkscape:window-y="-8"
     inkscape:window-maximized="1"
     inkscape:current-layer="Layer_1" /><path
     d="M 5.3337841,13.163466 20.846771,13.368249 15.310096,7.3937074 c -0.579414,-0.6252369 -1.65701,-1.7347247 -1.65701,-2.5140293 0,-1.4861182 1.853963,-3.2994377 3.70253,-3.2994377 0.826949,0 2.391871,1.5656336 2.993007,2.1501127 L 30.405745,14.180779 c 0.4932,0.512488 1.030962,1.107039 1.030962,2.208034 0,1.100994 -0.4345,1.631103 -1.006044,2.185378 L 19.670657,29.039584 c -0.601136,0.584478 -2.226685,1.592363 -3.053634,1.592363 -1.850125,0 -3.566939,-1.534446 -3.566939,-3.020564 0,-0.779305 1.021516,-2.083399 1.657012,-2.65731 l 6.139675,-5.544698 -15.3622366,0 c -1.7193072,0 -2.9639363,-1.291708 -2.9639363,-2.959059 0,-1.667352 1.094041,-3.309543 2.813186,-3.28685 z"
     id="path3"
     inkscape:connector-curvature="0"
     sodipodi:nodetypes="scssscssccssscsss"
     style="fill:url(#linearGradient3784);fill-opacity:1;stroke:#4a6e0b;stroke-width:1.08388758;stroke-miterlimit:4;stroke-opacity:1;stroke-dasharray:none" /><path
     style="font-size:2050.27807617000010000px;font-style:normal;font-weight:normal;fill:#ec0000;fill-opacity:1;stroke:none;font-family:Times New Roman"
     d="m 6.4879716,16.442271 c -3.47904,-0.9612 -5.21855,-2.41674 -5.21855,-4.36663 0,-1.53792 0.92274,-2.7668906 2.76821,-3.6869206 1.84547,-0.91999 4.13686,-1.38 6.8741824,-1.38002 2.49005,0 4.46797,0.31928 5.93377,0.95778 1.46576,0.63853 2.19866,1.40406 2.19868,2.2966006 -2e-5,0.46689 -0.2296,0.8754 -0.68874,1.22554 -0.45918,0.35017 -0.98899,0.52524 -1.58941,0.52523 -0.98898,10e-6 -1.80134,-0.53552 -2.43709,-1.60659 -0.88301,-1.4829906 -2.20751,-2.2244906 -3.9735,-2.2245106 -1.3951616,2e-5 -2.5430624,0.35704 -3.4437124,1.07106 -0.90067,0.7140604 -1.351,1.7095906 -1.351,2.9866106 0,2.51288 1.66887,3.76932 5.0066324,3.76931 0.35318,1e-5 0.75936,-0.0275 1.21854,-0.0824 0.79469,-0.0824 1.41279,-0.12358 1.8543,-0.12359 1.07725,10e-6 1.61588,0.24032 1.6159,0.72091 -2e-5,0.53554 -0.54748,0.80331 -1.64239,0.8033 -0.38853,10e-6 -0.97131,-0.048 -1.74834,-0.14418 -0.5828,-0.0824 -1.03313,-0.12358 -1.35099,-0.12359 -3.5320224,10e-6 -5.2980324,1.40063 -5.2980224,4.20186 -10e-6,1.35943 0.46799,2.45451 1.40398,3.28527 0.93597,0.83076 2.2428106,1.24614 3.9205324,1.24614 2.10153,0 3.49667,-0.84449 4.18543,-2.53347 0.35318,-0.89255 0.74612,-1.51047 1.1788,-1.85376 0.43266,-0.34329 1.01102,-0.51493 1.7351,-0.51494 0.60043,10e-6 1.14347,0.16822 1.62914,0.50464 0.48563,0.33643 0.72846,0.76554 0.72848,1.28733 -2e-5,1.24958 -0.90068,2.28287 -2.70199,3.0999 -1.80134,0.81703 -3.98235,1.22554 -6.54304,1.22554 -2.8079624,0 -5.3024424,-0.5218 -7.4834524,-1.56539 -2.18102,-1.0436 -3.27152016,-2.43735 -3.27152016,-4.18126 0,-2.18331 2.16335016,-3.7899 6.49007016,-4.81978 z"
     id="text2175"
     inkscape:connector-curvature="0"
     sodipodi:nodetypes="cscsccscccsscccccccscscccccsssscc" /></svg>