<?xml version="1.0" encoding="UTF-8" standalone="no"?>
<svg
   xmlns:dc="http://purl.org/dc/elements/1.1/"
   xmlns:cc="http://creativecommons.org/ns#"
   xmlns:rdf="http://www.w3.org/1999/02/22-rdf-syntax-ns#"
   xmlns:svg="http://www.w3.org/2000/svg"
   xmlns="http://www.w3.org/2000/svg"
   xmlns:sodipodi="http://sodipodi.sourceforge.net/DTD/sodipodi-0.dtd"
   xmlns:inkscape="http://www.inkscape.org/namespaces/inkscape"
   height="32px"
   version="1.1"
   viewBox="0 0 32 32"
   width="32px"
   id="svg2"
   inkscape:version="0.48.4 r9939"
   sodipodi:docname="unlock.svg">
  <metadata
     id="metadata15">
    <rdf:RDF>
      <cc:Work
         rdf:about="">
        <dc:format>image/svg+xml</dc:format>
        <dc:type
           rdf:resource="http://purl.org/dc/dcmitype/StillImage" />
        <dc:title />
      </cc:Work>
    </rdf:RDF>
  </metadata>
  <sodipodi:namedview
     pagecolor="#ffffff"
     bordercolor="#666666"
     borderopacity="1"
     objecttolerance="10"
     gridtolerance="10"
     guidetolerance="10"
     inkscape:pageopacity="0"
     inkscape:pageshadow="2"
     inkscape:window-width="1600"
     inkscape:window-height="838"
     id="namedview13"
     showgrid="false"
     inkscape:zoom="7.375"
     inkscape:cx="16"
     inkscape:cy="14.697447"
     inkscape:window-x="-8"
     inkscape:window-y="-8"
     inkscape:window-maximized="1"
     inkscape:current-layer="svg2" />
  <desc
     id="desc6" />
  <defs
     id="defs8" />
  <g
     id="Page-1"
     stroke-width="1"
     stroke="none"
     fill-rule="evenodd"
     fill="none">
    <g
       id="icon-114-lock"
       fill="#157EFB">
      <path
         d="m 16,21.914647 0,2.594348 C 16,24.780169 16.231934,25 16.5,25 16.776142,25 17,24.772119 17,24.508995 l 0,-2.594348 C 17.582596,21.708729 18,21.153109 18,20.5 18,19.671573 17.328427,19 16.5,19 15.671573,19 15,19.671573 15,20.5 c 0,0.653109 0.417404,1.208729 1,1.414647 z M 16.5,3 C 12.357864,3 9,6.3567048 9,10.499235 l 0,3.500778 0,0 0,0 c -1.6576665,0.0047 -3,1.339568 -3,3.009465 l 0,9.981044 C 6,28.652611 7.3455902,30 9.008788,30 l 14.982424,0 C 25.65292,30 27,28.663369 27,26.990522 c 0,0 0,-6.654029 0,-9.981044 C 27,15.350317 25.315283,14 24,14 c -1,0 -3,0 -3,0 l -9,0 0,0 0,0 0,-3.499146 C 12,8.0092478 14.014719,6 16.5,6 c 0.418984,-1.5636687 0.406055,-1.4845811 0,-3 z"
         id="lock"
         inkscape:connector-curvature="0"
         sodipodi:nodetypes="cssscsssccsscccssssssccccccc" />
    </g>
  </g>
</svg>
