/* XPM */
static char * OMNotebook_icon_xpm[] = {
"32 32 5 1",
" 	c None",
".	c #008080",
"+	c #0000FF",
"@	c #FFFFFF",
"#	c #000000",
"..++++++++++++++++++++++++++++..",
".+@@@@@@@@@@@@@@@@@@@@@@@@@@@@+.",
"+@@@@@@@@@@@@@@@@@@@@@@@@@@@@@@+",
"+@@@@@@@@@@@@@@@@@@@@@@@@@@@@@@+",
"+@@@@@#####@@@@@####@@@@@####@@+",
"+@@@@#######@@@@####@@@@@####@@+",
"+@@@###@@@###@@@####@@@@@####@@+",
"+@@@###@@@###@@@#####@@@#####@@+",
"+@@###@@@@@###@@#####@@@#####@@+",
"+@@###@@@@@###@@###@#@@@#@###@@+",
"+@@###@@@@@###@@###@#@@@#@###@@+",
"+@@###@@@@@###@@###@##@##@###@@+",
"+@@###@@@@@###@@###@##@##@###@@+",
"+@@###@@@@@###@@###@##@##@###@@+",
"+@@###@@@@@###@@###@@#@#@@###@@+",
"+@@@###@@@###@@@###@@###@@###@@+",
"+@@@###@@@###@@@###@@###@@###@@+",
"+@@@@#######@@@@###@@###@@###@@+",
"+@@@@@#####@@@@@###@@###@@###@@+",
"+@@@@@@@@@@@@@@@@@@@@@@@@@@@@@@+",
"+@@@@@@@@@@@@@@@@@@@@@@@@@@@@@@+",
"+@#@@#@@@@#@@@@#@@@@@@@@@@@#@@@+",
"+@##@#@@@@#@@@@#@@@@@@@@@@@#@@@+",
"+@##@#@#@####@@##@@@#@@@#@@#@#@+",
"+@#@###@#@####@#@#@#@#@#@#@##@@+",
"+@#@###@#@##@@@#@#@#@#@#@#@#@#@+",
"+@#@@#@#@@####@##@@@#@@@#@@#@#@+",
"+@@@@@@@@@@@@@@@@@@@@@@@@@@@@@@+",
"+@@@@@@@@@@@@@@@@@@@@@@@@@@@@@@+",
"+@@@@@@@@@@@@@@@@@@@@@@@@@@@@@@+",
".+@@@@@@@@@@@@@@@@@@@@@@@@@@@@+.",
"..++++++++++++++++++++++++++++.."};
