<?xml version="1.0" encoding="UTF-8" standalone="no"?>
<!-- Created with Inkscape (http://www.inkscape.org/) -->

<svg
   xmlns:dc="http://purl.org/dc/elements/1.1/"
   xmlns:cc="http://creativecommons.org/ns#"
   xmlns:rdf="http://www.w3.org/1999/02/22-rdf-syntax-ns#"
   xmlns:svg="http://www.w3.org/2000/svg"
   xmlns="http://www.w3.org/2000/svg"
   xmlns:sodipodi="http://sodipodi.sourceforge.net/DTD/sodipodi-0.dtd"
   xmlns:inkscape="http://www.inkscape.org/namespaces/inkscape"
   id="svg2"
   version="1.1"
   inkscape:version="0.91 r13725"
   xml:space="preserve"
   width="1074.9375"
   height="496.75"
   viewBox="0 0 1074.9375 496.75"
   sodipodi:docname="systemoverview.svg"><metadata
     id="metadata8"><rdf:RDF><cc:Work
         rdf:about=""><dc:format>image/svg+xml</dc:format><dc:type
           rdf:resource="http://purl.org/dc/dcmitype/StillImage" /><dc:title></dc:title></cc:Work></rdf:RDF></metadata><defs
     id="defs6"><clipPath
       clipPathUnits="userSpaceOnUse"
       id="clipPath22"><path
         d="m 10.5,3.35 2.699,0 0,-1 -2.699,0 0,1 z"
         id="path24"
         inkscape:connector-curvature="0" /></clipPath><clipPath
       clipPathUnits="userSpaceOnUse"
       id="clipPath32"><path
         d="m 10,3 3,0 0,2 -3,0 0,-2 z"
         id="path34"
         inkscape:connector-curvature="0" /></clipPath><clipPath
       clipPathUnits="userSpaceOnUse"
       id="clipPath54"><path
         d="m 7.551,6.401 3.148,0 0,-1.102 -3.148,0 0,1.102 z"
         id="path56"
         inkscape:connector-curvature="0" /></clipPath><clipPath
       clipPathUnits="userSpaceOnUse"
       id="clipPath64"><path
         d="M 7,6 11,6 11,8 7,8 7,6 Z"
         id="path66"
         inkscape:connector-curvature="0" /></clipPath><clipPath
       clipPathUnits="userSpaceOnUse"
       id="clipPath90"><path
         d="m 5.75,3.202 2.699,0 0,-0.602 -2.699,0 0,0.602 z"
         id="path92"
         inkscape:connector-curvature="0" /></clipPath><clipPath
       clipPathUnits="userSpaceOnUse"
       id="clipPath100"><path
         d="M 6,3 9,3 9,4 6,4 6,3 Z"
         id="path102"
         inkscape:connector-curvature="0" /></clipPath><clipPath
       clipPathUnits="userSpaceOnUse"
       id="clipPath120"><path
         d="m 13.5,7.85 3.551,0 0,-1.051 -3.551,0 0,1.051 z"
         id="path122"
         inkscape:connector-curvature="0" /></clipPath><clipPath
       clipPathUnits="userSpaceOnUse"
       id="clipPath130"><path
         d="m 13,7 5,0 0,2 -5,0 0,-2 z"
         id="path132"
         inkscape:connector-curvature="0" /></clipPath><clipPath
       clipPathUnits="userSpaceOnUse"
       id="clipPath164"><path
         d="m 12.75,5.85 2.949,0 0,-1.051 -2.949,0 0,1.051 z"
         id="path166"
         inkscape:connector-curvature="0" /></clipPath><clipPath
       clipPathUnits="userSpaceOnUse"
       id="clipPath174"><path
         d="m 13,5 3,0 0,2 -3,0 0,-2 z"
         id="path176"
         inkscape:connector-curvature="0" /></clipPath><clipPath
       clipPathUnits="userSpaceOnUse"
       id="clipPath200"><path
         d="m 8.051,1.248 2.699,0 0,-1 -2.699,0 0,1 z"
         id="path202"
         inkscape:connector-curvature="0" /></clipPath><clipPath
       clipPathUnits="userSpaceOnUse"
       id="clipPath210"><path
         d="M 8,1 11,1 11,3 8,3 8,1 Z"
         id="path212"
         inkscape:connector-curvature="0" /></clipPath><clipPath
       clipPathUnits="userSpaceOnUse"
       id="clipPath232"><path
         d="m 0.5,3.85 3.449,0 0,-1.551 -3.449,0 0,1.551 z"
         id="path234"
         inkscape:connector-curvature="0" /></clipPath><clipPath
       clipPathUnits="userSpaceOnUse"
       id="clipPath242"><path
         d="M 0,3 4,3 4,5 0,5 0,3 Z"
         id="path244"
         inkscape:connector-curvature="0" /></clipPath><clipPath
       clipPathUnits="userSpaceOnUse"
       id="clipPath274"><path
         d="m 0.199,7.799 3.949,0 0,-1.051 -3.949,0 0,1.051 z"
         id="path276"
         inkscape:connector-curvature="0" /></clipPath><clipPath
       clipPathUnits="userSpaceOnUse"
       id="clipPath284"><path
         d="M 0,7 5,7 5,9 0,9 0,7 Z"
         id="path286"
         inkscape:connector-curvature="0" /></clipPath><clipPath
       clipPathUnits="userSpaceOnUse"
       id="clipPath318"><path
         d="m 0.449,6.1 3.449,0 0,-1.551 -3.449,0 0,1.551 z"
         id="path320"
         inkscape:connector-curvature="0" /></clipPath><clipPath
       clipPathUnits="userSpaceOnUse"
       id="clipPath328"><path
         d="M 1,5 4,5 4,7 1,7 1,5 Z"
         id="path330"
         inkscape:connector-curvature="0" /></clipPath></defs><sodipodi:namedview
     pagecolor="#ffffff"
     bordercolor="#666666"
     borderopacity="1"
     objecttolerance="10"
     gridtolerance="10"
     guidetolerance="10"
     inkscape:pageopacity="0"
     inkscape:pageshadow="2"
     inkscape:window-width="719"
     inkscape:window-height="480"
     id="namedview4"
     showgrid="false"
     inkscape:zoom="17.294799"
     inkscape:cx="537.49937"
     inkscape:cy="248.37625"
     inkscape:window-x="754"
     inkscape:window-y="270"
     inkscape:window-maximized="0"
     inkscape:current-layer="g10"
     fit-margin-top="0"
     fit-margin-left="0"
     fit-margin-right="0"
     fit-margin-bottom="0" /><g
     id="g10"
     inkscape:groupmode="layer"
     inkscape:label="systemoverview"
     transform="matrix(1.25,0,0,-1.25,526.68688,253.43625)"><g
       id="g12"
       transform="matrix(50,0,0,50,-422.6495,-198.401)"><g
         id="g14"
         transform="matrix(1,0,0,-1,0,8.1)"><path
           d="m 10.199,4.602 3.25,0 0,1.297 -3.25,0 0,-1.297 z"
           style="fill:#ffffff;fill-opacity:1;fill-rule:evenodd;stroke:#000000;stroke-width:0.05;stroke-linecap:round;stroke-linejoin:round;stroke-miterlimit:4;stroke-dasharray:none;stroke-opacity:1"
           id="path16"
           inkscape:connector-curvature="0" /></g></g><g
       id="g18"
       transform="matrix(50,0,0,50,-422.6495,-198.401)"><g
         id="g20"
         clip-path="url(#clipPath22)"><g
           id="g26"
           transform="translate(0,-0.9)"><g
             id="g28"><g
               id="g30"
               clip-path="url(#clipPath32)"><g
                 id="g36"><text
                   transform="matrix(1,0,0,-1,10.95,3.85)"
                   style="font-variant:normal;font-weight:normal;font-size:0.44999999px;font-family:Arial;-inkscape-font-specification:ArialMT;writing-mode:lr-tb;fill:#000000;fill-opacity:1;fill-rule:nonzero;stroke:none"
                   id="text38"><tspan
                     x="0 0.37485 0.62505001 0.87524998 1.12545 1.2266999 1.3266 1.5516"
                     y="0"
                     sodipodi:role="line"
                     id="tspan40">Modelica</tspan><tspan
                     x="0 0.3249 0.5751 0.94994998 1.20015 1.3013999 1.4013 1.6515"
                     y="0.49752271"
                     sodipodi:role="line"
                     id="tspan42">Compiler</tspan></text>
</g></g></g></g></g></g><g
       id="g44"
       transform="matrix(50,0,0,50,-422.6495,-198.401)"><g
         id="g46"
         transform="matrix(1,0,0,-1,0,8.1)"><path
           d="m 7.199,1.449 3.75,0 0,1.699 -3.75,0 0,-1.699 z"
           style="fill:#ffffff;fill-opacity:1;fill-rule:evenodd;stroke:#000000;stroke-width:0.05;stroke-linecap:round;stroke-linejoin:round;stroke-miterlimit:4;stroke-dasharray:none;stroke-opacity:1"
           id="path48"
           inkscape:connector-curvature="0" /></g></g><g
       id="g50"
       transform="matrix(50,0,0,50,-422.6495,-198.401)"><g
         id="g52"
         clip-path="url(#clipPath54)"><g
           id="g58"
           transform="translate(0,-0.9)"><g
             id="g60"><g
               id="g62"
               clip-path="url(#clipPath64)"><g
                 id="g68"><text
                   transform="matrix(1,0,0,-1,8.124084,6.9)"
                   style="font-variant:normal;font-weight:normal;font-size:0.44999999px;font-family:Arial;-inkscape-font-specification:ArialMT;writing-mode:lr-tb;fill:#000000;fill-opacity:1;fill-rule:nonzero;stroke:none"
                   id="text70"><tspan
                     x="0 0.12465 0.37485 0.49950001 0.74970001 0.89955002 1.14975 1.37475 1.4994 1.5993 1.8243001"
                     y="0"
                     sodipodi:role="line"
                     id="tspan72">Interactive</tspan><tspan
                     x="-0.47636729 -0.2513673 -0.0011673 0.2238327 0.44883269 0.5487327 0.79893267 1.0491327 1.2993327 1.5508827 1.8010827 2.0512826 2.1511827 2.4013827"
                     y="0.49752271"
                     sodipodi:role="line"
                     id="tspan74">sessionhandler</tspan></text>
</g></g></g></g></g></g><g
       id="g76"
       transform="matrix(50,0,0,50,-422.6495,-198.401)"><g
         id="g78"
         transform="matrix(1,0,0,-1,0,8.1)"><path
           d="m 14.199,1.949 0,-0.398 0.051,0 0,0.449 -0.051,0 0,-0.051 z m 0.153,-0.051 -0.102,0.204 -0.102,-0.204 0.204,0 z m -0.204,-0.296 0.102,-0.204 0.102,0.204 -0.204,0 z"
           style="fill:#000000;fill-opacity:1;fill-rule:nonzero;stroke:#000000;stroke-width:0.05;stroke-linecap:round;stroke-linejoin:round;stroke-miterlimit:4;stroke-dasharray:none;stroke-opacity:1"
           id="path80"
           inkscape:connector-curvature="0" /></g><g
         id="g82"
         transform="matrix(1,0,0,-1,0,8.1)"><path
           d="m 5.449,4.602 3.25,0 0,1.25 -3.25,0 0,-1.25 z"
           style="fill:#ffffff;fill-opacity:1;fill-rule:evenodd;stroke:#000000;stroke-width:0.05;stroke-linecap:round;stroke-linejoin:round;stroke-miterlimit:4;stroke-dasharray:none;stroke-opacity:1"
           id="path84"
           inkscape:connector-curvature="0" /></g></g><g
       id="g86"
       transform="matrix(50,0,0,50,-422.6495,-198.401)"><g
         id="g88"
         clip-path="url(#clipPath90)"><g
           id="g94"
           transform="translate(0,-0.9)"><g
             id="g96"><g
               id="g98"
               clip-path="url(#clipPath100)"><g
                 id="g104"><text
                   transform="matrix(1,0,0,-1,6.1,3.65)"
                   style="font-variant:normal;font-weight:normal;font-size:0.44999999px;font-family:Arial;-inkscape-font-specification:ArialMT;writing-mode:lr-tb;fill:#000000;fill-opacity:1;fill-rule:nonzero;stroke:none"
                   id="text106"><tspan
                     x="0 0.29969999 0.52469999 0.77490002 0.99989998 1.2501 1.37475 1.47465 1.7248501"
                     y="0"
                     sodipodi:role="line"
                     id="tspan108">Execution</tspan></text>
</g></g></g></g></g></g><g
       id="g110"
       transform="matrix(50,0,0,50,-422.6495,-198.401)"><g
         id="g112"
         transform="matrix(1,0,0,-1,0,8.1)"><path
           d="m 13.352,0.102 3.848,0 0,1.297 -3.848,0 0,-1.297 z"
           style="fill:none;stroke:#000000;stroke-width:0.05;stroke-linecap:round;stroke-linejoin:round;stroke-miterlimit:4;stroke-dasharray:none;stroke-opacity:1"
           id="path114"
           inkscape:connector-curvature="0" /></g></g><g
       id="g116"
       transform="matrix(50,0,0,50,-422.6495,-198.401)"><g
         id="g118"
         clip-path="url(#clipPath120)"><g
           id="g124"
           transform="translate(0,-0.9)"><g
             id="g126"><g
               id="g128"
               clip-path="url(#clipPath130)"><g
                 id="g134"><text
                   transform="matrix(1,0,0,-1,13.87063,8.35)"
                   style="font-variant:normal;font-weight:normal;font-size:0.44999999px;font-family:Arial;-inkscape-font-specification:ArialMT;writing-mode:lr-tb;fill:#000000;fill-opacity:1;fill-rule:nonzero;stroke:none"
                   id="text136"><tspan
                     x="0 0.34965 0.49950001 0.74970001 0.99989998 1.2501 1.35 1.575 1.82655 1.92645 2.3013 2.5515001 2.8017001 3.0532501"
                     y="0"
                     sodipodi:role="line"
                     id="tspan138">GraphicalModel</tspan><tspan
                     x="0.2003904 0.50009042 0.75029039 0.8501904 0.9748404 1.2250404 1.3762404 1.5008904 1.8005904 1.9504404 2.2006404 2.5255404 2.7505405 3.0020905"
                     y="0.49752271"
                     sodipodi:role="line"
                     id="tspan140">Editor/Browser</tspan></text>
</g></g></g></g></g></g><g
       id="g142"
       transform="matrix(50,0,0,50,-422.6495,-198.401)"><g
         id="g144"
         transform="matrix(1,0,0,-1,0,8.1)"><path
           d="m 8.801,5.148 1.398,0 0,0.051 -1.398,0 0,-0.051 z M 8.852,5.301 8.648,5.199 8.852,5.102 l 0,0.199 z"
           style="fill:#000000;fill-opacity:1;fill-rule:nonzero;stroke:#000000;stroke-width:0.05;stroke-linecap:round;stroke-linejoin:round;stroke-miterlimit:4;stroke-dasharray:none;stroke-opacity:1"
           id="path146"
           inkscape:connector-curvature="0" /></g><g
         id="g148"
         transform="matrix(1,0,0,-1,0,8.1)"><path
           d="m 7.051,4.551 1.648,-1.352 0,0.051 -1.597,1.352 -0.051,0 0,-0.051 z M 8.602,3.199 8.801,3.148 8.699,3.352 8.602,3.199 Z"
           style="fill:#000000;fill-opacity:1;fill-rule:nonzero;stroke:#000000;stroke-width:0.05;stroke-linecap:round;stroke-linejoin:round;stroke-miterlimit:4;stroke-dasharray:none;stroke-opacity:1"
           id="path150"
           inkscape:connector-curvature="0" /></g><g
         id="g152"
         transform="matrix(1,0,0,-1,0,8.1)"><path
           d="m 10.051,3.199 1.597,1.25 0,0.051 -0.046,0 L 10,3.25 l 0,-0.051 0.051,0 z M 10,3.301 9.898,3.102 10.102,3.148 10,3.301 Z m 1.648,1.051 0.102,0.25 -0.25,-0.051 0.148,-0.199 z"
           style="fill:#000000;fill-opacity:1;fill-rule:nonzero;stroke:#000000;stroke-width:0.05;stroke-linecap:round;stroke-linejoin:round;stroke-miterlimit:4;stroke-dasharray:none;stroke-opacity:1"
           id="path154"
           inkscape:connector-curvature="0" /></g><g
         id="g156"
         transform="matrix(1,0,0,-1,0,8.1)"><path
           d="m 12.648,2.148 3.203,0 0,1.301 -3.203,0 0,-1.301 z"
           style="fill:#ffffff;fill-opacity:1;fill-rule:evenodd;stroke:#000000;stroke-width:0.05;stroke-linecap:round;stroke-linejoin:round;stroke-miterlimit:4;stroke-dasharray:none;stroke-opacity:1"
           id="path158"
           inkscape:connector-curvature="0" /></g></g><g
       id="g160"
       transform="matrix(50,0,0,50,-422.6495,-198.401)"><g
         id="g162"
         clip-path="url(#clipPath164)"><g
           id="g168"
           transform="translate(0,-0.9)"><g
             id="g170"><g
               id="g172"
               clip-path="url(#clipPath174)"><g
                 id="g178"><text
                   transform="matrix(1,0,0,-1,13.64884,6.3)"
                   style="font-variant:normal;font-weight:normal;font-size:0.44999999px;font-family:Arial;-inkscape-font-specification:ArialMT;writing-mode:lr-tb;fill:#000000;fill-opacity:1;fill-rule:nonzero;stroke:none"
                   id="text180"><tspan
                     x="0 0.22499999 0.4752 0.70020002 0.82485002 1.07505 1.32525 1.4265"
                     y="0"
                     sodipodi:role="line"
                     id="tspan182">Textual </tspan><tspan
                     x="-0.55063486 -0.17578486 0.074415147 0.32461515 0.57481515 0.67606515 0.80071515 1.1004151 1.3506151 1.4505152 1.5751652 1.8253652"
                     y="0.49752271"
                     sodipodi:role="line"
                     id="tspan184">Model Editor</tspan></text>
</g></g></g></g></g></g><g
       id="g186"
       transform="matrix(50,0,0,50,-422.6495,-198.401)"><g
         id="g188"
         transform="matrix(1,0,0,-1,0,8.1)"><path
           d="m 12.398,2.852 -1.25,-0.25 0,-0.051 1.301,0.25 0,0.051 -0.051,0 z m 0,-0.153 0.153,0.153 -0.199,0.046 0.046,-0.199 z M 11.199,2.648 11,2.551 l 0.199,-0.102 0,0.199 z"
           style="fill:#000000;fill-opacity:1;fill-rule:nonzero;stroke:#000000;stroke-width:0.05;stroke-linecap:round;stroke-linejoin:round;stroke-miterlimit:4;stroke-dasharray:none;stroke-opacity:1"
           id="path190"
           inkscape:connector-curvature="0" /></g><g
         id="g192"
         transform="matrix(1,0,0,-1,0,8.1)"><path
           d="M 7.75,6.699 11,6.699 11,8 7.75,8 7.75,6.699 Z"
           style="fill:#ffffff;fill-opacity:1;fill-rule:evenodd;stroke:#000000;stroke-width:0.05;stroke-linecap:round;stroke-linejoin:round;stroke-miterlimit:4;stroke-dasharray:none;stroke-opacity:1"
           id="path194"
           inkscape:connector-curvature="0" /></g></g><g
       id="g196"
       transform="matrix(50,0,0,50,-422.6495,-198.401)"><g
         id="g198"
         clip-path="url(#clipPath200)"><g
           id="g204"
           transform="translate(0,-0.9)"><g
             id="g206"><g
               id="g208"
               clip-path="url(#clipPath210)"><g
                 id="g214"><text
                   transform="matrix(1,0,0,-1,8.5,1.75)"
                   style="font-variant:normal;font-weight:normal;font-size:0.44999999px;font-family:Arial;-inkscape-font-specification:ArialMT;writing-mode:lr-tb;fill:#000000;fill-opacity:1;fill-rule:nonzero;stroke:none"
                   id="text216"><tspan
                     x="0 0.37485 0.62505001 0.87524998 1.12545 1.2266999 1.3266 1.5516"
                     y="0"
                     sodipodi:role="line"
                     id="tspan218">Modelica</tspan><tspan
                     x="0 0.3249 0.5751 0.82529998 1.0755 1.3257 1.57725 1.82745"
                     y="0.49752271"
                     sodipodi:role="line"
                     id="tspan220">Debugger</tspan></text>
</g></g></g></g></g></g><g
       id="g222"
       transform="matrix(50,0,0,50,-422.6495,-198.401)"><g
         id="g224"
         transform="matrix(1,0,0,-1,0,8.1)"><path
           d="m 0.352,4.148 3.75,0 0,1.801 -3.75,0 0,-1.801 z"
           style="fill:#ffffff;fill-opacity:1;fill-rule:evenodd;stroke:#000000;stroke-width:0.05;stroke-linecap:round;stroke-linejoin:round;stroke-miterlimit:4;stroke-dasharray:none;stroke-opacity:1"
           id="path226"
           inkscape:connector-curvature="0" /></g></g><g
       id="g228"
       transform="matrix(50,0,0,50,-422.6495,-198.401)"><g
         id="g230"
         clip-path="url(#clipPath232)"><g
           id="g236"
           transform="translate(0,-0.9)"><g
             id="g238"><g
               id="g240"
               clip-path="url(#clipPath242)"><g
                 id="g246"><text
                   transform="matrix(1,0,0,-1,1.022486,4.3)"
                   style="font-variant:normal;font-weight:normal;font-size:0.44999999px;font-family:Arial;-inkscape-font-specification:ArialMT;writing-mode:lr-tb;fill:#000000;fill-opacity:1;fill-rule:nonzero;stroke:none"
                   id="text248"><tspan
                     x="0 0.34965 0.7245 1.0494 1.2996 1.42425 1.67445 1.92465 2.17485 2.4263999"
                     y="0"
                     sodipodi:role="line"
                     id="tspan250">OMNotebook</tspan><tspan
                     x="0.37441394 0.69931394 0.84916395 1.2240139 1.475564 1.7257639 1.975964 2.0758638 2.1757638 2.400764"
                     y="0.49999994"
                     sodipodi:role="line"
                     id="tspan252">DrModelica</tspan><tspan
                     x="-0.072485998 0.30236399 0.55256402 0.802764 1.052964 1.154214 1.278864 1.578564 1.828764 1.928664 2.053314 2.303514"
                     y="0.99999988"
                     sodipodi:role="line"
                     id="tspan254">Model Editor</tspan></text>
</g></g></g></g></g></g><g
       id="g256"
       transform="matrix(50,0,0,50,-422.6495,-198.401)"><g
         id="g258"
         transform="matrix(1,0,0,-1,0,8.1)"><path
           d="M 10.648,6.5 11.5,6 l 0,0.051 -0.852,0.5 -0.046,0 0,-0.051 0.046,0 z m 0.102,0.102 -0.25,0 0.148,-0.204 0.102,0.204 z m 0.648,-0.653 0.25,0 L 11.5,6.148 11.398,5.949 Z"
           style="fill:#000000;fill-opacity:1;fill-rule:nonzero;stroke:#000000;stroke-width:0.05;stroke-linecap:round;stroke-linejoin:round;stroke-miterlimit:4;stroke-dasharray:none;stroke-opacity:1"
           id="path260"
           inkscape:connector-curvature="0" /></g><g
         id="g262"
         transform="matrix(1,0,0,-1,0,8.1)"><path
           d="M 8.148,6.551 7.449,6 l 0,-0.051 0.051,0 0.699,0.551 0,0.051 -0.051,0 z M 8.199,6.398 8.301,6.602 8.051,6.551 8.199,6.398 Z M 7.449,6.102 7.352,5.898 7.551,5.949 7.449,6.102 Z"
           style="fill:#000000;fill-opacity:1;fill-rule:nonzero;stroke:#000000;stroke-width:0.05;stroke-linecap:round;stroke-linejoin:round;stroke-miterlimit:4;stroke-dasharray:none;stroke-opacity:1"
           id="path264"
           inkscape:connector-curvature="0" /></g><g
         id="g266"
         transform="matrix(1,0,0,-1,0,8.1)"><path
           d="m 0.051,0.199 4.25,0 0,1.301 -4.25,0 0,-1.301 z"
           style="fill:#ffffff;fill-opacity:1;fill-rule:evenodd;stroke:#000000;stroke-width:0.05;stroke-linecap:round;stroke-linejoin:round;stroke-miterlimit:4;stroke-dasharray:none;stroke-opacity:1"
           id="path268"
           inkscape:connector-curvature="0" /></g></g><g
       id="g270"
       transform="matrix(50,0,0,50,-422.6495,-198.401)"><g
         id="g272"
         clip-path="url(#clipPath274)"><g
           id="g278"
           transform="translate(0,-0.9)"><g
             id="g280"><g
               id="g282"
               clip-path="url(#clipPath284)"><g
                 id="g288"><text
                   transform="matrix(1,0,0,-1,0.326233,8.3)"
                   style="font-variant:normal;font-weight:normal;font-size:0.44999999px;font-family:Arial;-inkscape-font-specification:ArialMT;writing-mode:lr-tb;fill:#000000;fill-opacity:1;fill-rule:nonzero;stroke:none"
                   id="text290"><tspan
                     x="0 0.37485 0.69975001 0.96749997 1.09215 1.39185 1.61685 1.71675 1.818 2.0682001 2.2932 2.5434 2.6680501 2.9677501 3.0676501 3.3178501 3.5694001 3.6693001"
                     y="0"
                     sodipodi:role="line"
                     id="tspan292">MDT Eclipse Plugin</tspan><tspan
                     x="0.4842774 0.78397739 1.0341774 1.1340774 1.2587274 1.5089273 1.6601274 1.7847774 2.0844774 2.2343273 2.4845273 2.8094275 3.0344274 3.2859774"
                     y="0.49752271"
                     sodipodi:role="line"
                     id="tspan294">Editor/Browser</tspan></text>
</g></g></g></g></g></g><g
       id="g296"
       transform="matrix(50,0,0,50,-422.6495,-198.401)"><g
         id="g298"
         transform="matrix(1,0,0,-1,0,8.1)"><path
           d="m 4.5,0.852 2.5,0.796 0.051,0 0,0.051 -0.051,0 -2.5,-0.801 0,-0.046 z m 0,0.097 -0.148,-0.148 0.25,0 L 4.5,0.949 Z M 7,1.551 7.148,1.75 6.949,1.75 7,1.551 Z"
           style="fill:#000000;fill-opacity:1;fill-rule:nonzero;stroke:#000000;stroke-width:0.05;stroke-linecap:round;stroke-linejoin:round;stroke-miterlimit:4;stroke-dasharray:none;stroke-opacity:1"
           id="path300"
           inkscape:connector-curvature="0" /></g><g
         id="g302"
         transform="matrix(1,0,0,-1,0,8.1)"><path
           d="m 4.301,4.398 2.801,-1.546 0.046,0 0,0.046 -2.847,1.551 -0.051,0 0.051,-0.051 z M 4.398,4.5 4.148,4.5 4.301,4.301 4.398,4.5 Z M 7.051,2.801 7.25,2.801 7.148,3 7.051,2.801 Z"
           style="fill:#000000;fill-opacity:1;fill-rule:nonzero;stroke:#000000;stroke-width:0.05;stroke-linecap:round;stroke-linejoin:round;stroke-miterlimit:4;stroke-dasharray:none;stroke-opacity:1"
           id="path304"
           inkscape:connector-curvature="0" /></g><g
         id="g306"
         transform="matrix(1,0,0,-1,0,8.1)"><path
           d="m 13.602,5.199 2.847,0 -0.051,0.051 0,-3.699 0.051,-0.051 0,3.75 -2.898,0 0,-0.051 0.051,0 z m 0.046,0.153 -0.199,-0.102 0.199,-0.102 0,0.204 z m 2.653,-3.75 0.148,-0.204 0.102,0.204 -0.25,0 z"
           style="fill:#000000;fill-opacity:1;fill-rule:nonzero;stroke:#000000;stroke-width:0.05;stroke-linecap:round;stroke-linejoin:round;stroke-miterlimit:4;stroke-dasharray:none;stroke-opacity:1"
           id="path308"
           inkscape:connector-curvature="0" /></g><g
         id="g310"
         transform="matrix(1,0,0,-1,0,8.1)"><path
           d="m 0.301,1.898 3.75,0 0,1.801 -3.75,0 0,-1.801 z"
           style="fill:#ffffff;fill-opacity:1;fill-rule:evenodd;stroke:#000000;stroke-width:0.05;stroke-linecap:round;stroke-linejoin:round;stroke-miterlimit:4;stroke-dasharray:none;stroke-opacity:1"
           id="path312"
           inkscape:connector-curvature="0" /></g></g><g
       id="g314"
       transform="matrix(50,0,0,50,-422.6495,-198.401)"><g
         id="g316"
         clip-path="url(#clipPath318)"><g
           id="g322"
           transform="translate(0,-0.9)"><g
             id="g324"><g
               id="g326"
               clip-path="url(#clipPath328)"><g
                 id="g332"><text
                   transform="matrix(1,0,0,-1,1.27467,6.55)"
                   style="font-variant:normal;font-weight:normal;font-size:0.44999999px;font-family:Arial;-inkscape-font-specification:ArialMT;writing-mode:lr-tb;fill:#000000;fill-opacity:1;fill-rule:nonzero;stroke:none"
                   id="text334"><tspan
                     x="0 0.34965 0.7245 1.07415 1.32435 1.449 1.5489"
                     y="0"
                     sodipodi:role="line"
                     id="tspan336">OMOptim</tspan><tspan
                     x="-0.28828126 0.061368749 0.31156874 0.43621874 0.53611875 0.91096872 1.0108688 1.2358687 1.4860687 1.6107187 1.7106187 1.9608188"
                     y="0.49999994"
                     sodipodi:role="line"
                     id="tspan338">Optimization</tspan><tspan
                     x="-0.22467016 0.07502985 0.32522985 0.57542986 0.80042982 1.0254298 1.2504299 1.3750799 1.6252799"
                     y="0.99999988"
                     sodipodi:role="line"
                     id="tspan340">Subsystem</tspan></text>
</g></g></g></g></g></g><g
       id="g342"
       transform="matrix(50,0,0,50,-422.6495,-198.401)"><g
         id="g344"
         transform="matrix(1,0,0,-1,0,8.1)"><path
           d="m 4.301,2.801 2.801,-0.602 0.046,0 0,0.051 -0.046,0 -2.801,0.602 -0.051,0 0.051,-0.051 z M 4.352,2.949 4.148,2.898 4.301,2.75 4.352,2.949 Z M 7.051,2.148 7.25,2.199 7.102,2.301 7.051,2.148 Z"
           style="fill:#000000;fill-opacity:1;fill-rule:nonzero;stroke:#000000;stroke-width:0.05;stroke-linecap:round;stroke-linejoin:round;stroke-miterlimit:4;stroke-dasharray:none;stroke-opacity:1"
           id="path346"
           inkscape:connector-curvature="0" /></g></g></g></svg>