<?xml version="1.0" encoding="UTF-8" standalone="no"?>
<svg
   xmlns:dc="http://purl.org/dc/elements/1.1/"
   xmlns:cc="http://creativecommons.org/ns#"
   xmlns:rdf="http://www.w3.org/1999/02/22-rdf-syntax-ns#"
   xmlns:svg="http://www.w3.org/2000/svg"
   xmlns="http://www.w3.org/2000/svg"
   xmlns:sodipodi="http://sodipodi.sourceforge.net/DTD/sodipodi-0.dtd"
   xmlns:inkscape="http://www.inkscape.org/namespaces/inkscape"
   sodipodi:docname="fit-extent-to-diagram.svg"
   inkscape:version="1.0 (4035a4fb49, 2020-05-01)"
   version="1.1"
   id="svg3052"
   height="32px"
   width="32px">
  <defs
     id="defs3054">
    <linearGradient
       y2="249.692"
       y1="289.88599"
       x2="290.09698"
       x1="249.901"
       id="a"
       gradientUnits="userSpaceOnUse">
      <stop
         id="stop7"
         stop-color="#979798"
         offset="0" />
      <stop
         id="stop9"
         stop-color="#C5C5C5"
         offset=".412" />
      <stop
         id="stop11"
         stop-color="#fff"
         offset=".6" />
      <stop
         id="stop13"
         stop-color="#CDCDCE"
         offset=".722" />
      <stop
         id="stop15"
         stop-color="#787879"
         offset="1" />
    </linearGradient>
    <linearGradient
       gradientTransform="matrix(0.07069813,0,0,0.07069813,-1.5609074,-1.5034653)"
       y2="385.14801"
       y1="335.72601"
       x2="335.93399"
       x1="385.35599"
       id="b"
       gradientUnits="userSpaceOnUse">
      <stop
         id="stop18"
         stop-color="#434242"
         offset="0" />
      <stop
         id="stop20"
         stop-color="#545454"
         offset=".478" />
      <stop
         id="stop22"
         stop-color="#434242"
         offset="1" />
    </linearGradient>
    <radialGradient
       gradientTransform="matrix(0.08623054,0,0,0.08623054,-2.1235401,-2.0665142)"
       r="109.292"
       id="c"
       gradientUnits="userSpaceOnUse"
       fy="164.99899"
       fx="165"
       cy="164.99899"
       cx="165">
      <stop
         id="stop25"
         stop-color="#4EAFFF"
         offset="0" />
      <stop
         id="stop27"
         stop-color="#4EAFFF"
         offset=".58" />
      <stop
         id="stop29"
         stop-color="#0076D8"
         offset="1" />
    </radialGradient>
  </defs>
  <sodipodi:namedview
     inkscape:document-rotation="0"
     inkscape:window-maximized="1"
     inkscape:window-y="-8"
     inkscape:window-x="-8"
     inkscape:window-height="1089"
     inkscape:window-width="2048"
     inkscape:document-units="px"
     inkscape:grid-bbox="true"
     showgrid="true"
     inkscape:current-layer="layer1"
     inkscape:cy="16"
     inkscape:cx="1.8007848"
     inkscape:zoom="11.2"
     inkscape:pageshadow="2"
     inkscape:pageopacity="0.0"
     borderopacity="1.0"
     bordercolor="#666666"
     pagecolor="#ffffff"
     id="base" />
  <metadata
     id="metadata3057">
    <rdf:RDF>
      <cc:Work
         rdf:about="">
        <dc:format>image/svg+xml</dc:format>
        <dc:type
           rdf:resource="http://purl.org/dc/dcmitype/StillImage" />
        <dc:title />
      </cc:Work>
    </rdf:RDF>
  </metadata>
  <g
     inkscape:groupmode="layer"
     inkscape:label="Layer 1"
     id="layer1">
    <g
       transform="matrix(1.0397107,0,0,1.0397107,-1.0794213,-1.0794213)"
       id="g186">
      <path
         id="path2"
         d="m 24.2093,2.2888921 5.528636,-0.2843215 c 0.318785,-0.02902 0.602253,0.081291 0.818142,0.2984806 0.215889,0.2171897 0.322014,0.4988184 0.293562,0.8199209 L 30.542045,8.6597865 C 30.505424,9.3165697 29.940042,9.8785653 29.283052,9.911241 28.62606,9.9439161 28.1248,9.4396369 28.161421,8.7828534 l 0.154042,-2.6544999 -6.324108,6.2862405 c -0.495438,0.49247 -1.249554,0.532353 -1.688776,0.09048 -0.439223,-0.441869 -0.394811,-1.195732 0.09771,-1.685305 L 26.7244,4.5335339 24.069023,4.6716308 C 23.412031,4.7043059 22.910772,4.2000266 22.947392,3.5432436 22.986927,2.8835634 23.549394,2.3244645 24.2093,2.2888921 Z"
         style="stroke-width:0.0380316" />
      <path
         style="stroke-width:0.0380316"
         d="m 30.523025,24.2093 0.284321,5.528636 c 0.02902,0.318785 -0.08129,0.602253 -0.29848,0.818142 -0.21719,0.215889 -0.498819,0.322014 -0.819921,0.293562 L 24.15213,30.542045 c -0.656783,-0.03662 -1.218778,-0.602003 -1.251454,-1.258993 -0.03268,-0.656992 0.471604,-1.158252 1.128387,-1.121631 l 2.6545,0.154042 -6.28624,-6.324108 c -0.49247,-0.495438 -0.532353,-1.249554 -0.09048,-1.688776 0.441869,-0.439223 1.195732,-0.394811 1.685305,0.09771 l 6.286235,6.324111 -0.138097,-2.655377 c -0.03267,-0.656992 0.471604,-1.158251 1.128387,-1.121631 0.65968,0.03954 1.218779,0.602002 1.254352,1.261908 z"
         id="path2-4" />
      <path
         id="path2-4-2"
         d="m 17.740077,23.930595 -0.284321,-5.528636 c -0.02902,-0.318785 0.08129,-0.602253 0.29848,-0.818142 0.21719,-0.215889 0.498819,-0.322014 0.819921,-0.293562 l 5.536815,0.307595 c 0.656783,0.03662 1.218778,0.602003 1.251454,1.258993 0.03268,0.656992 -0.471604,1.158252 -1.128387,1.121631 l -2.6545,-0.154042 6.28624,6.324108 c 0.49247,0.495438 0.532353,1.249554 0.09048,1.688776 -0.441869,0.439223 -1.195732,0.394811 -1.685305,-0.09771 l -6.286235,-6.324111 0.138097,2.655377 c 0.03267,0.656992 -0.471604,1.158251 -1.128387,1.121631 -0.65968,-0.03954 -1.218779,-0.602002 -1.254352,-1.261908 z"
         style="stroke-width:0.0380316" />
      <path
         id="path2-4-22"
         d="m 15.132025,8.6929241 0.284321,5.5286359 c 0.02902,0.318785 -0.08129,0.602253 -0.29848,0.818142 -0.21719,0.215889 -0.498819,0.322014 -0.819922,0.293562 L 8.7611296,15.025669 c -0.656783,-0.03662 -1.218778,-0.602003 -1.251454,-1.258993 -0.03268,-0.656992 0.471604,-1.158252 1.128387,-1.121631 L 11.292563,12.799087 5.0063226,6.4749791 c -0.49247,-0.495438 -0.532353,-1.249554 -0.09048,-1.688776 0.441869,-0.439223 1.195732,-0.394811 1.685305,0.09771 L 12.887383,11.208024 12.749286,8.5526471 c -0.03267,-0.656992 0.471604,-1.158251 1.128386,-1.121631 0.65968,0.03954 1.21878,0.602002 1.254353,1.261908 z"
         style="stroke-width:0.0380316" />
      <path
         id="path2-4-0"
         d="m 24.095881,14.938495 -5.528636,0.284321 c -0.318785,0.02902 -0.602253,-0.08129 -0.818142,-0.29848 -0.215889,-0.21719 -0.322014,-0.498819 -0.293562,-0.819922 l 0.307595,-5.5368133 c 0.03662,-0.656783 0.602003,-1.218778 1.258993,-1.251454 0.656992,-0.03268 1.158252,0.471604 1.121631,1.128387 l -0.154042,2.6544993 6.324108,-6.2862393 c 0.495438,-0.49247 1.249554,-0.532353 1.688776,-0.09048 0.439223,0.441869 0.394811,1.195732 -0.09771,1.685305 l -6.324111,6.2862333 2.655377,-0.138097 c 0.656992,-0.03267 1.158251,0.471604 1.121631,1.128387 -0.03954,0.65968 -0.602002,1.21878 -1.261908,1.254353 z"
         style="stroke-width:0.0380316" />
      <path
         style="stroke-width:0.0380316"
         d="m 2.2888916,8.6448803 -0.284321,-5.528636 c -0.02902,-0.318784 0.08129,-0.602252 0.29848,-0.818141 0.21719,-0.215889 0.498819,-0.3220141 0.819922,-0.2935621 l 5.536815,0.3075951 c 0.656783,0.03662 1.218778,0.602002 1.251454,1.258992 0.03268,0.656992 -0.471604,1.158252 -1.128387,1.121631 l -2.6545,-0.154042 6.2862404,6.3241077 c 0.49247,0.495438 0.532353,1.249554 0.09048,1.688776 -0.441869,0.439223 -1.195732,0.394811 -1.685305,-0.09771 l -6.2862354,-6.3241107 0.138097,2.655377 c 0.03267,0.656992 -0.471604,1.158251 -1.128387,1.121631 -0.65968,-0.03954 -1.21878,-0.602002 -1.254353,-1.261908 z"
         id="path2-4-22-6" />
      <path
         id="path2-4-22-6-6"
         d="M 8.8179238,17.65079 14.34656,17.366469 c 0.318784,-0.02902 0.602252,0.08129 0.818141,0.29848 0.215889,0.21719 0.322014,0.498819 0.293562,0.819922 l -0.307595,5.536815 c -0.03662,0.656783 -0.602002,1.218778 -1.258992,1.251454 -0.656992,0.03268 -1.158252,-0.471604 -1.121631,-1.128387 l 0.154042,-2.6545 -6.3241082,6.286241 c -0.495438,0.49247 -1.249553,0.532353 -1.688775,0.09048 -0.439223,-0.441869 -0.394811,-1.195732 0.09771,-1.685306 L 11.333024,19.895433 8.6776468,20.03353 c -0.656992,0.03267 -1.158251,-0.471604 -1.121631,-1.128387 0.03954,-0.65968 0.602002,-1.21878 1.261908,-1.254353 z"
         style="stroke-width:0.0380316" />
      <path
         id="path2-4-22-6-7"
         d="m 8.6448812,30.523027 -5.5286359,0.284321 c -0.3187841,0.02902 -0.6022521,-0.08129 -0.8181411,-0.29848 -0.215889,-0.21719 -0.322015,-0.498819 -0.293563,-0.819922 l 0.307596,-5.536815 c 0.03662,-0.656783 0.602002,-1.218778 1.2589921,-1.251454 0.656992,-0.03268 1.1582519,0.471604 1.1216309,1.128387 l -0.154042,2.6545 6.3241078,-6.286241 c 0.495438,-0.49247 1.249553,-0.532353 1.688775,-0.09048 0.439223,0.441869 0.394811,1.195733 -0.09771,1.685306 l -6.3241098,6.286235 2.655377,-0.138097 c 0.656992,-0.03267 1.158251,0.471604 1.121631,1.128387 -0.03954,0.65968 -0.602002,1.21878 -1.261908,1.254353 z"
         style="stroke-width:0.0380316" />
    </g>
  </g>
</svg>
