<?xml version="1.0" encoding="UTF-8" standalone="no"?>
<!-- Created with Inkscape (http://www.inkscape.org/) -->

<svg
   xmlns:dc="http://purl.org/dc/elements/1.1/"
   xmlns:cc="http://creativecommons.org/ns#"
   xmlns:rdf="http://www.w3.org/1999/02/22-rdf-syntax-ns#"
   xmlns:svg="http://www.w3.org/2000/svg"
   xmlns="http://www.w3.org/2000/svg"
   xmlns:sodipodi="http://sodipodi.sourceforge.net/DTD/sodipodi-0.dtd"
   xmlns:inkscape="http://www.inkscape.org/namespaces/inkscape"
   width="32px"
   height="32px"
   id="svg3011"
   version="1.1"
   inkscape:version="0.48.4 r9939"
   sodipodi:docname="notificationicon.svg">
  <defs
     id="defs3013" />
  <sodipodi:namedview
     id="base"
     pagecolor="#ffffff"
     bordercolor="#666666"
     borderopacity="1.0"
     inkscape:pageopacity="0.0"
     inkscape:pageshadow="2"
     inkscape:zoom="11.197802"
     inkscape:cx="2.0686946"
     inkscape:cy="16"
     inkscape:current-layer="layer1"
     showgrid="true"
     inkscape:grid-bbox="true"
     inkscape:document-units="px"
     showguides="true"
     inkscape:guide-bbox="true"
     inkscape:window-width="1600"
     inkscape:window-height="838"
     inkscape:window-x="-8"
     inkscape:window-y="-8"
     inkscape:window-maximized="1" />
  <metadata
     id="metadata3016">
    <rdf:RDF>
      <cc:Work
         rdf:about="">
        <dc:format>image/svg+xml</dc:format>
        <dc:type
           rdf:resource="http://purl.org/dc/dcmitype/StillImage" />
        <dc:title></dc:title>
      </cc:Work>
    </rdf:RDF>
  </metadata>
  <g
     id="layer1"
     inkscape:label="Layer 1"
     inkscape:groupmode="layer">
    <g
       id="g3"
       transform="matrix(0.14842762,0,0,0.14842407,-6.389268,-6.2338513)">
      <path
         d="m 255.271,149.797 c 0,57.677 -46.752,104.433 -104.429,104.433 -57.677,0 -104.427,-46.756 -104.427,-104.433 0,-57.674 46.75,-104.428 104.427,-104.428 57.677,0 104.429,46.754 104.429,104.428 z"
         id="path7"
         inkscape:connector-curvature="0"
         style="fill:#1c45af;stroke:#000000;stroke-width:6.73737096999999970;stroke-miterlimit:4;stroke-opacity:1;stroke-dasharray:none;fill-opacity:1" />
      <g
         id="g9">
        <polygon
           points="165.801,162.025 137.031,162.025 135.33,93.402 166.366,93.402 "
           id="polygon11"
           style="fill:#ffffff"
           transform="matrix(1,0,0,-1,0,299.597)" />
        <path
           d="m 164.421,98.957 c -3.786,-3.702 -8.35,-5.555 -13.692,-5.555 -5.573,0 -10.147,1.793 -13.736,5.395 -3.596,3.589 -5.391,8.165 -5.391,13.729 0,5.402 1.863,9.982 5.589,13.736 3.728,3.754 8.236,5.622 13.538,5.622 5.294,0 9.85,-1.913 13.644,-5.751 3.814,-3.834 5.711,-8.398 5.711,-13.692 0.004,-5.302 -1.889,-9.785 -5.663,-13.484 z"
           id="path13"
           inkscape:connector-curvature="0"
           style="fill:#ffffff" />
      </g>
    </g>
  </g>
</svg>
