<?xml version="1.0" encoding="UTF-8" standalone="no"?>
<!--part of the matt icon theme by sixsixfive released under CC0 (https://creativecommons.org/publicdomain/zero/1.0/) on openclipart-->
<svg xmlns="http://www.w3.org/2000/svg" xmlns:xlink="http://www.w3.org/1999/xlink" viewBox="0 0 128 128">
 <defs id="0">
  <linearGradient id="7">
   <stop id="F" stop-color="#a4c0e4"/>
   <stop id="G" offset="1" stop-color="#6193cf"/>
  </linearGradient>
  <linearGradient id="8">
   <stop id="H" stop-color="#fff"/>
   <stop id="I" offset="1" stop-color="#fff" stop-opacity="0"/>
  </linearGradient>
  <linearGradient id="9">
   <stop id="J"/>
   <stop id="K" offset="1" stop-opacity="0"/>
  </linearGradient>
  <radialGradient cx="68.01" cy="124.75" r="39.585" id="A" xlink:href="#9" gradientUnits="userSpaceOnUse" gradientTransform="matrix(1,0,0,0.06153846,0,117.07494)"/>
  <filter x="-0.035" y="-0.573" width="1.07" height="2.145" color-interpolation-filters="sRGB" id="B">
   <feGaussianBlur stdDeviation="1.16249" id="L"/>
  </filter>
  <linearGradient y1="3.565" x2="0" y2="9.54" id="C" xlink:href="#8" gradientUnits="userSpaceOnUse"/>
  <linearGradient y1="33.954" x2="0" y2="46.44" id="D" xlink:href="#8" gradientUnits="userSpaceOnUse" gradientTransform="matrix(1.0513598,0,0,1.117578,3.6983038,-3.0353842)"/>
  <linearGradient y1="1.581" x2="0" y2="122.44" id="E" xlink:href="#7" gradientUnits="userSpaceOnUse"/>
 </defs>
 <path d="m 107.59064,124.75198 a 39.585236,2.4360147 0 1 1 -79.170466,0 39.585236,2.4360147 0 1 1 79.170466,0 z" transform="matrix(1.2381947,0,0,1.038071,-20.203937,-10.755157)" id="1" opacity="0.43" fill="url(#A)" filter="url(#B)"/>
 <path d="M 47.375,4.6875 C 47.030085,4.69323 46.67594,4.715689 46.25,4.75 46.086099,4.763203 45.994752,4.79465 45.875,4.8125 45.83199,4.81522 45.725303,4.828356 45.59375,4.84375 45.55738,4.84801 45.478361,4.869363 45.4375,4.875 45.182769,4.910142 44.877496,4.939855 44.46875,5.09375 44.46425,5.09545 43.86261,5.3407406 43.34375,5.6875 42.56144,6.2103263 42.087843,6.8374667 41.75,7.375 c -0.388219,0.6176916 -0.743081,1.3747942 -0.84375,2.34375 -0.03574,0.343978 -0.04146,0.627373 -0.03125,0.84375 0.0045,0.09631 0.02257,0.164025 0.03125,0.25 0.0011,0.0106 -0.0012,0.0205 0,0.03125 0.0052,0.04895 0.008,0.07414 0.03125,0.21875 0.0058,0.03615 0.03118,0.218434 0.03125,0.21875 3.4e-5,1.58e-4 0.09373,0.343674 0.09375,0.34375 0,10e-7 0.03032,0.02993 0.03125,0.03125 0.01051,0.03576 0.02053,0.09129 0.03125,0.125 l -0.03125,0 c -0.01762,-0.06689 0.06602,0.183669 0.0625,0.1875 -0.01108,0.01207 -0.01255,0.07611 0.1875,0.59375 0.218514,0.5654 0.377578,0.833765 0.46875,1.03125 0.316472,0.685501 0.710338,1.552932 1.21875,2.5625 1.009938,2.005466 2.331484,4.545736 3.6875,7.125 1.354151,2.575714 2.762703,5.179534 3.8125,7.15625 0.524877,0.988317 0.966621,1.816397 1.28125,2.40625 0.157315,0.294927 0.257967,0.526938 0.34375,0.6875 0.08578,0.160562 0.330184,0.638339 0.125,0.25 -0.123681,-0.234081 2.844641,5.340866 5.5625,10.46875 1.348866,2.544954 2.708223,5.158255 3.8125,7.15625 0.56937,1.030171 1.061427,1.829662 1.40625,2.40625 0.192224,0.321419 0.360737,0.630212 0.59375,0.96875 -0.450092,-0.653911 0.06892,0.195052 0.46875,0.65625 -0.01695,-0.01955 0.198064,0.190264 0.28125,0.28125 0.01169,0.01237 0.05035,0.04928 0.0625,0.0625 0.110676,0.120464 0.197291,0.209414 0.3125,0.3125 0.02775,0.02387 0.03372,0.0076 0.0625,0.03125 a 3.8013223,3.8013223 0 0 0 0.3125,0.21875 c 0.179631,0.137444 0.322997,0.262353 0.59375,0.40625 0.685586,0.364368 1.514425,0.623952 2.375,0.65625 0.836612,0.03141 1.815535,-0.09261 2.8125,-0.625 0.435611,-0.232622 0.651319,-0.427286 0.875,-0.625 0.03782,-0.03343 0.120282,-0.06075 0.15625,-0.09375 0.0829,-0.07606 0.207701,-0.197734 0.3125,-0.3125 0.0524,-0.05738 0.0701,-0.04968 0.15625,-0.15625 0.02466,-0.02623 0.03439,-8.04e-4 0.0625,-0.03125 0.376506,-0.407767 0.535881,-0.673359 0.59375,-0.75 0.294594,-0.390148 0.543398,-0.740794 0.84375,-1.1875 0.661031,-0.983137 1.466269,-2.270399 2.34375,-3.65625 0.860371,-1.358829 1.808009,-2.92263 2.75,-4.4375 6.45291,4.655372 10.78125,11.931507 10.78125,20.5 C 89.812497,80.373973 78.311461,91.875 63.96875,91.875 49.626032,91.874998 38.125,80.373967 38.125,66.03125 c -10e-7,-5.89143 2.022545,-11.209786 5.40625,-15.625 0.774747,-1.011648 1.338469,-2.411959 1.09375,-4.125 -0.223548,-1.564952 -0.991329,-2.756817 -2.15625,-3.625 l 0,-0.03125 c -0.01153,-0.0086 -0.01976,0.0086 -0.03125,0 -3.577674,-2.663677 -5.447715,-4.01957 -6.3125,-4.65625 -0.449427,-0.330883 -0.651153,-0.499302 -0.875,-0.65625 0.259174,0.181716 -0.157911,-0.07756 -0.21875,-0.125 -0.01334,-0.01127 -0.04845,-0.01951 -0.0625,-0.03125 -0.163972,-0.137092 -0.365903,-0.310247 -0.625,-0.5 -0.870466,-0.637498 -2.644975,-1.97084 -6.21875,-4.625 a 3.8013223,3.8013223 0 0 0 -0.03125,0 c -1.98318,-1.45606 -4.591577,-1.220647 -6.4375,0.125 a 3.8013223,3.8013223 0 0 0 -1.1875,1.03125 c -6.882093,9.118353 -11.1875,20.45281 -11.1875,32.84375 0,30.140807 24.546692,54.6875 54.6875,54.6875 30.140597,0 54.75,-24.538987 54.75,-54.6875 0,-18.847361 -9.82698,-35.201654 -24.375,-44.9375 0.571009,-0.897242 1.215292,-1.903466 1.6875,-2.65625 0.612287,-0.976094 1.170528,-1.820127 1.625,-2.59375 0.23995,-0.408455 0.380323,-0.763995 0.5,-1 1.9e-5,-2.8e-5 0.02678,-0.02421 0.03125,-0.03125 0.02195,-0.03455 0.07133,-0.14911 0.09375,-0.1875 0.05398,-0.09242 0.07222,-0.114254 0.09375,-0.15625 0.04307,-0.08399 0.07563,-0.147652 0.09375,-0.1875 0.0254,-0.05584 0.01413,-0.08382 0.03125,-0.125 0.03272,-0.07732 0.03226,-0.01292 0.0625,-0.09375 0.0137,-0.03612 0.0173,-0.08606 0.03125,-0.125 0.03056,-0.0853 0.06407,-0.21321 0.09375,-0.3125 0.05053,-0.146822 0.08805,-0.283325 0.125,-0.4375 0.0054,-0.0266 0.02603,-0.0349 0.03125,-0.0625 a 3.8013223,3.8013223 0 0 0 0.03125,-0.375 3.8013223,3.8013223 0 0 0 0,-0.0625 c 0.03418,-0.225467 0.09833,-0.410279 0.09375,-0.71875 -0.01262,-0.850518 -0.244105,-1.720002 -0.65625,-2.5 -0.425978,-0.8062518 -0.986297,-1.4616582 -1.78125,-2 C 96.192766,7.2395285 95.932882,7.1057751 95.6875,7 95.564809,6.9471125 95.463386,6.9028332 95.28125,6.84375 95.2431,6.8313745 95.188812,6.8304665 95.125,6.8125 95.11383,6.8082 95.10528,6.81684 95.09375,6.8125 94.961016,6.762492 94.952385,6.734145 94.78125,6.6875 94.477259,6.604648 94.235523,6.5861993 93.96875,6.5625 93.902644,6.5521811 93.628153,6.52534 93.46875,6.5 93.268817,6.4682169 93.150844,6.4343052 92.84375,6.40625 92.086462,6.3370655 91.154569,6.2829542 90.03125,6.21875 87.801234,6.0912935 84.920033,5.9281393 82,5.8125 79.07926,5.6968331 76.12829,5.6035854 73.90625,5.53125 72.809015,5.495531 71.881296,5.4587977 71.1875,5.4375 c -0.333608,-0.010241 -0.625683,0.0054 -0.8125,0 -0.09341,-0.0027 -0.138577,-0.029886 -0.1875,-0.03125 -0.01223,-3.411e-4 -0.02187,2.577e-4 -0.03125,0 -1.12e-4,-4.2e-6 -0.236727,5.444e-4 -0.25,0 C 69.716769,5.398479 68.428682,5.3353889 66.34375,5.25 64.112567,5.1586213 61.164198,5.0393519 58.25,4.9375 55.361407,4.8365426 52.458586,4.7270477 50.1875,4.6875 49.029382,4.667333 48.079776,4.675788 47.375,4.6875 z M 33.09375,36.5 c 0.01738,-0.002 0.125086,9e-6 0.125,0 -5.68e-4,-6e-5 0.526412,0.08408 0.75,0.15625 0.106796,0.03447 0.18995,0.08685 0.28125,0.125 0.07061,0.0295 0.156916,0.0636 0.21875,0.09375 0.01205,0.0061 0.04738,0.0063 0.09375,0.03125 0.0038,0.0022 -0.0043,0.02876 0,0.03125 -0.07394,-0.03965 -0.251074,-0.05214 -0.34375,-0.09375 -0.305944,-0.137366 -0.605388,-0.303318 -1.125,-0.34375 z m -0.5625,0.09375 c -0.635744,0.0877 -1.283886,0.251919 -1.5625,0.40625 0.241778,-0.120169 0.625709,-0.312744 0.625,-0.3125 -5.31e-4,1.83e-4 0.476808,-0.04151 0.9375,-0.09375 z" id="2" fill="#0057ae"/>
 <path d="M 45.375,1.59375 C 44.995883,1.60005 44.728794,1.604052 44.46875,1.625 44.345329,1.63494 44.185814,1.62626 44.03125,1.65625 43.96295,1.669503 43.887158,1.66711 43.75,1.71875 43.69015,1.741285 43.59901,1.791705 43.46875,1.875 c -0.13026,0.083295 -0.274962,0.2101389 -0.4375,0.46875 -0.162564,0.2586529 -0.232574,0.4473762 -0.25,0.59375 -0.01743,0.1463738 -0.0056,0.2496737 0,0.3125 0.01388,0.1553561 0.07989,0.2286487 0.09375,0.28125 0.03671,0.139378 0.04412,0.2778217 0.09375,0.40625 0.09515,0.2462177 0.247863,0.5319241 0.40625,0.875 0.318378,0.6896287 0.788445,1.6160647 1.34375,2.71875 1.110343,2.2048444 2.607043,5.050211 4.125,7.9375 3.036007,5.774753 6.199096,11.716154 6.25,11.8125 0.02074,0.03925 0.777666,1.542777 1.9375,3.75 1.159834,2.207223 2.724663,5.122092 4.25,8 1.525269,2.877776 3.05761,5.780079 4.25,7.9375 0.596212,1.078749 1.110498,1.973704 1.5,2.625 0.194336,0.324952 0.351565,0.596842 0.5,0.8125 0.07781,0.113053 0.155506,0.172254 0.25,0.28125 0.04093,0.04721 0.07032,0.122468 0.1875,0.21875 0.05054,0.04153 0.112492,0.119872 0.25,0.1875 0.137508,0.06763 0.351313,0.144806 0.65625,0.15625 0.364852,0.0137 0.585738,-0.04885 0.71875,-0.125 0.133012,-0.07615 0.17448,-0.183807 0.21875,-0.21875 0.116514,-0.09197 0.187289,-0.150835 0.25,-0.21875 0.122571,-0.132744 0.199894,-0.257116 0.3125,-0.40625 0.228531,-0.302663 0.511473,-0.693313 0.84375,-1.1875 0.664197,-0.987844 1.539036,-2.370445 2.53125,-3.9375 1.76887,-2.793666 3.863894,-6.190423 5.75,-9.21875 10.816473,5.607748 18.28125,16.753673 18.28125,29.78125 C 97.781249,84.411866 82.661795,99.5625 63.96875,99.5625 45.275701,99.562497 30.125,84.411801 30.125,65.71875 30.125001,57.994822 32.8396,50.964117 37.21875,45.25 37.447453,44.951364 37.552918,44.589176 37.5,44.21875 37.44696,43.847487 37.24117,43.504268 36.9375,43.28125 32.907932,40.280864 30.889348,38.809293 29.875,38.0625 29.367788,37.689075 29.089223,37.481379 28.9375,37.375 28.86528,37.32436 28.87825,37.32188 28.75,37.25 c -0.01847,-0.01035 -0.04718,-0.02327 -0.0625,-0.03125 -0.09791,-0.06816 -0.324936,-0.267925 -0.8125,-0.625 -0.999407,-0.73193 -3.04269,-2.202081 -7.0625,-5.1875 -0.613923,-0.450744 -1.44545,-0.357916 -1.90625,0.25 -7.165802,9.494249 -11.625,21.235104 -11.625,34.0625 0,31.294068 25.393397,56.71875 56.6875,56.71875 31.29411,0 56.75,-25.422917 56.75,-56.71875 0,-21.21019 -11.86862,-39.377322 -29.15625,-49.03125 1.575437,-2.498357 3.165417,-5.040458 4.375,-6.96875 0.707503,-1.1278905 1.33387,-2.104146 1.75,-2.8125 0.208513,-0.3549457 0.344344,-0.6296345 0.46875,-0.875 0.06062,-0.1195546 0.162506,-0.2246497 0.21875,-0.375 0.02475,-0.066173 0.06535,-0.1622342 0.09375,-0.3125 C 98.480394,5.2821485 98.498256,5.1883212 98.5,5.03125 98.501744,4.8741788 98.460736,4.6555391 98.3125,4.375 98.169341,4.1040412 98.03433,3.9625117 97.90625,3.875 97.77817,3.7874883 97.680223,3.7443817 97.625,3.71875 97.491193,3.6566424 97.380873,3.6436351 97.3125,3.625 97.163778,3.5844651 97.061986,3.5819316 96.9375,3.5625 96.67825,3.5220321 96.377142,3.5032047 96,3.46875 95.24347,3.3996356 94.200924,3.320425 92.96875,3.25 90.504835,3.1091748 87.290029,2.972804 84.03125,2.84375 80.772411,2.7146936 77.475616,2.6156341 74.96875,2.53125 72.461884,2.4468659 70.738595,2.3769179 70.6875,2.375 70.565102,2.3704059 63.888259,2.10264 57.375,1.875 54.118576,1.7611872 50.872099,1.6366891 48.40625,1.59375 c -1.233203,-0.021474 -2.272578,-0.012608 -3.03125,0 z" transform="matrix(0.8897751,0,0,0.8897751,7.0543937,7.5432102)" id="3" fill="url(#E)"/>
 <path d="M 45.03125,3.5 A 0.13320668,0.13320668 0 0 0 45,3.53125 0.13320668,0.13320668 0 0 0 44.96875,3.5625 a 0.13320668,0.13320668 0 0 0 0,0.03125 0.13320668,0.13320668 0 0 0 0,0.03125 0.13320668,0.13320668 0 0 0 0,0.03125 0.13320668,0.13320668 0 0 0 0,0.03125 C 45.02952,3.8148591 45.04926,3.8359382 45.125,4 c 0.311245,0.674176 0.737372,1.5762564 1.28125,2.65625 1.096956,2.1782615 2.575498,5.018398 4.09375,7.90625 3.032844,5.768738 6.084855,11.499929 6.25,11.8125 0.106589,0.201724 0.809607,1.544092 1.96875,3.75 1.159136,2.205895 2.695011,5.125107 4.21875,8 1.526416,2.87994 3.073496,5.777572 4.25,7.90625 0.586813,1.061743 1.062002,1.934622 1.4375,2.5625 0.08589,0.143608 0.129737,0.185491 0.1875,0.28125 a 0.13320668,0.13320668 0 0 0 0.03125,0.03125 0.13320668,0.13320668 0 0 0 0.03125,0.03125 0.13320668,0.13320668 0 0 0 0.03125,0 0.13320668,0.13320668 0 0 0 0.03125,0 0.13320668,0.13320668 0 0 0 0.03125,0 0.13320668,0.13320668 0 0 0 0.03125,0 0.13320668,0.13320668 0 0 0 0.03125,-0.03125 c 0.179283,-0.243529 0.385403,-0.518653 0.625,-0.875 0.637593,-0.948275 1.50783,-2.339266 2.5,-3.90625 1.768124,-2.792487 3.888079,-6.210441 5.78125,-9.25 0.518483,-0.810402 1.55443,-1.072189 2.40625,-0.625 11.434749,5.910453 19.34375,17.698734 19.34375,31.46875 -10e-7,19.719681 -15.997016,35.75 -35.71875,35.75 -19.721748,0 -35.75,-16.028249 -35.75,-35.75 1e-6,-7.930897 2.755059,-15.149567 7.125,-21.0625 A 0.13320668,0.13320668 0 0 0 35.375,44.625 a 0.13320668,0.13320668 0 0 0 0,-0.03125 0.13320668,0.13320668 0 0 0 0,-0.03125 0.13320668,0.13320668 0 0 0 0,-0.03125 0.13320668,0.13320668 0 0 0 0,-0.03125 0.13320668,0.13320668 0 0 0 -0.03125,-0.03125 c -3.512672,-2.611857 -5.637296,-4.17083 -6.59375,-4.875 -0.509399,-0.375035 -0.802548,-0.58354 -0.90625,-0.65625 0.0022,0.0086 3e-6,0.03128 0,0.03125 -7e-6,-5.9e-5 -1.6e-5,0.06254 0,0.0625 1.6e-5,-4.3e-5 -0.06254,0.06253 -0.0625,0.0625 3.8e-5,-2.8e-5 -0.03131,1.4e-5 -0.03125,0 5.9e-5,-1.4e-5 -0.03133,-10e-7 -0.03125,0 1.6e-4,10e-7 -0.03149,-5.5e-5 -0.03125,0 2.39e-4,5.5e-5 -0.02854,9.23e-4 -0.03125,0 0,0 0,-0.03125 0,-0.03125 0,0 -0.03125,-0.03125 -0.03125,-0.03125 0,0 0.125,-0.03125 0.125,-0.03125 -3.8e-5,-8e-6 0.0517,-0.06141 0.0625,-0.09375 1.08e-4,1.81e-4 -2.08e-4,-0.0315 0,-0.03125 -0.07043,-0.03451 -0.153268,-0.08185 -0.21875,-0.125 l 0,0.03125 C 27.202591,38.508944 27.191237,38.448148 26.75,38.125 25.846574,37.463364 23.677528,35.882847 20.25,33.34375 a 0.13320668,0.13320668 0 0 0 -0.03125,-0.03125 0.13320668,0.13320668 0 0 0 -0.03125,0 0.13320668,0.13320668 0 0 0 -0.03125,0 0.13320668,0.13320668 0 0 0 -0.03125,0 0.13320668,0.13320668 0 0 0 -0.03125,0 0.13320668,0.13320668 0 0 0 -0.03125,0.03125 c -6.700936,9.09534 -10.875,20.227863 -10.875,32.375 0,30.265268 24.517213,54.8125 54.78125,54.8125 30.264121,0 54.84375,-24.547934 54.84375,-54.8125 0,-20.516058 -11.47633,-38.104313 -28.21875,-47.4375 -0.441606,-0.246162 -0.779956,-0.667546 -0.90625,-1.15625 -0.126293,-0.488705 -0.01909,-1.004921 0.25,-1.4375 1.583166,-2.510589 3.192067,-5.064375 4.40625,-7 0.713311,-1.1371497 1.337825,-2.1015727 1.71875,-2.75 0.07841,-0.1334759 0.129596,-0.2346928 0.1875,-0.34375 a 0.13320668,0.13320668 0 0 0 0,-0.03125 0.13320668,0.13320668 0 0 0 0,-0.03125 0.13320668,0.13320668 0 0 0 0,-0.03125 0.13320668,0.13320668 0 0 0 0,-0.03125 0.13320668,0.13320668 0 0 0 -0.03125,-0.03125 0.13320668,0.13320668 0 0 0 -0.03125,-0.03125 0.13320668,0.13320668 0 0 0 -0.03125,0 0.13320668,0.13320668 0 0 0 -0.03125,0 C 96.00873,5.39582 95.970425,5.3894276 95.8125,5.375 95.083105,5.3083645 94.056143,5.2255443 92.84375,5.15625 90.404154,5.0168147 87.192803,4.8789164 83.9375,4.75 80.684011,4.6211555 77.410147,4.5217842 74.90625,4.4375 72.402356,4.3532159 70.944249,4.2932332 70.625,4.28125 70.324665,4.2699773 63.819066,4.0086562 57.3125,3.78125 54.051806,3.6672879 50.805947,3.5423314 48.375,3.5 c -1.205454,-0.020991 -2.224162,-0.012374 -2.96875,0 -0.148225,0.00246 -0.197399,-0.00291 -0.3125,0 a 0.13320668,0.13320668 0 0 0 -0.03125,0 0.13320668,0.13320668 0 0 0 -0.03125,0 z" transform="matrix(0.8897751,0,0,0.8897751,7.0543937,7.5432102)" id="4" opacity="0.601" fill="none" stroke="url(#C)" stroke-linejoin="round" stroke-linecap="round" stroke-width="3.911"/>
 <path d="m 25.021195,34.927342 c -0.369941,0.05899 -0.69827,0.2734 -0.919939,0.593713 -0.791369,1.196928 -1.549547,2.412866 -2.266995,3.667052 l 2.628399,1.431897 c 0.400905,-0.692206 0.790928,-1.385113 1.215634,-2.060535 1.889316,1.477064 3.824869,3.017117 4.435426,3.492431 0.381023,0.296628 0.480997,0.394892 0.985649,0.768336 0.01077,0.01183 0.02172,0.02347 0.03286,0.03492 0.04263,0.0257 0.0865,0.04902 0.131419,0.06985 0.01184,0.01167 0.03254,0.03464 0.03286,0.03493 0.0086,0.005 0.02498,-0.0045 0.03286,0 0.02379,0.01726 0.104126,0.06113 0.164275,0.104772 0.02843,0.02063 0.06571,0.06985 0.06571,0.06985 -2.73e-4,0 0.03252,-5.61e-4 0.03285,0 9.46e-4,0.0016 0.06018,0.02927 0.06571,0.03492 0.05547,0.05674 0.17236,0.186719 0.558534,0.48894 0.711667,0.556947 2.761712,2.162437 4.895396,3.841675 -0.0051,0.0083 0.0051,0.02657 0,0.03492 l 2.431269,1.327124 c 0.186063,-0.301583 0.365766,-0.611686 0.558536,-0.908032 0.413821,-0.66083 0.269561,-1.55024 -0.328551,-2.02561 -2.787217,-2.197857 -5.053753,-3.971784 -5.913899,-4.644933 -0.382442,-0.2993 -0.367142,-0.355207 -0.6571,-0.593714 -0.01095,-1.36e-4 -0.0219,-1.36e-4 -0.03285,0 -0.01077,-0.01183 -0.02172,-0.02348 -0.03285,-0.03492 -0.05245,-0.03885 -0.107346,-0.07386 -0.164276,-0.104774 -0.01095,-1.35e-4 -0.0219,-1.35e-4 -0.03286,0 -0.02191,0.03322 -0.187711,0.260547 -0.361406,0.523865 l -0.262839,0.593713 c -0.0027,0.0079 -0.03087,0.02913 -0.03286,0.03493 -0.0051,0.0018 -0.02882,-0.0014 -0.03285,0 0.0023,-0.01877 0.028,-0.09979 0.03285,-0.139699 -0.03037,0.04605 -0.13142,0.174622 -0.13142,0.174622 l 0.13142,-0.24447 c 0.0029,-0.02342 -0.0033,-0.043 0,-0.06985 0.118278,-0.269296 0.218231,-0.517162 0.32855,-0.768334 -0.05241,0.163432 -0.08275,0.269679 -0.164274,0.523864 l 0.06571,-0.104773 c 0.106491,-0.310844 0.184649,-0.592196 0.197129,-0.628637 0.0094,0.0034 0.03286,0 0.03286,0 0,0 0.06301,0.01683 0.09857,0.03492 l 0,-0.03492 c -0.07682,-0.04506 -0.08503,-0.06214 -0.09857,-0.06985 0,0 -0.01931,0.006 -0.03286,0 -2.1e-4,-3.3e-5 -0.0012,-0.0358 0,-0.03492 -0.04263,-0.0257 -0.08649,-0.04902 -0.131421,-0.06985 -0.04263,-0.0257 -0.08649,-0.04901 -0.131418,-0.06985 -0.210031,-0.168574 -0.328614,-0.312407 -0.689955,-0.593714 -0.789131,-0.614327 -3.060225,-2.341495 -5.683915,-4.400462 -0.300331,-0.23708 -0.681407,-0.338381 -1.05136,-0.279394 z" id="5" opacity="0.538" fill="url(#D)"/>
 <path d="m 31.495403,42.216634 c -0.0498,0.134742 -0.1231,0.342915 -0.222443,0.61172 0.01997,-0.154307 0.0078,-0.179359 0.0278,-0.333666 l 0.194638,-0.278054 z" id="6" opacity="0.634" fill="#ac4311"/>
</svg>
