<?xml version="1.0" encoding="UTF-8" standalone="no"?>
<!-- Created with Inkscape (http://www.inkscape.org/) -->

<svg
   xmlns:dc="http://purl.org/dc/elements/1.1/"
   xmlns:cc="http://creativecommons.org/ns#"
   xmlns:rdf="http://www.w3.org/1999/02/22-rdf-syntax-ns#"
   xmlns:svg="http://www.w3.org/2000/svg"
   xmlns="http://www.w3.org/2000/svg"
   xmlns:sodipodi="http://sodipodi.sourceforge.net/DTD/sodipodi-0.dtd"
   xmlns:inkscape="http://www.inkscape.org/namespaces/inkscape"
   width="32px"
   height="32px"
   id="svg3045"
   version="1.1"
   inkscape:version="0.48.5 r10040"
   sodipodi:docname="unlink.svg">
  <defs
     id="defs3047" />
  <sodipodi:namedview
     id="base"
     pagecolor="#ffffff"
     bordercolor="#666666"
     borderopacity="1.0"
     inkscape:pageopacity="0.0"
     inkscape:pageshadow="2"
     inkscape:zoom="11.197802"
     inkscape:cx="16"
     inkscape:cy="16"
     inkscape:current-layer="layer1"
     showgrid="true"
     inkscape:grid-bbox="true"
     inkscape:document-units="px"
     inkscape:window-width="1600"
     inkscape:window-height="837"
     inkscape:window-x="-8"
     inkscape:window-y="-8"
     inkscape:window-maximized="1">
    <inkscape:grid
       type="xygrid"
       id="grid3053" />
  </sodipodi:namedview>
  <metadata
     id="metadata3050">
    <rdf:RDF>
      <cc:Work
         rdf:about="">
        <dc:format>image/svg+xml</dc:format>
        <dc:type
           rdf:resource="http://purl.org/dc/dcmitype/StillImage" />
        <dc:title />
      </cc:Work>
    </rdf:RDF>
  </metadata>
  <g
     id="layer1"
     inkscape:label="Layer 1"
     inkscape:groupmode="layer">
    <path
       id="path5"
       d="m 8.1074,19.626281 -1.8791149,-0.0079 C 4.6009458,19.609587 3.2710301,17.996252 3.2649723,16.01975 3.2619432,15.069683 3.3643137,13.943713 4.1139251,13.511223 5,13 5,13 6.179599,12.4797 L 13.093054,9.513 c 1.432394,0.0074 3.835555,0.374794 3.843712,2.76 0.003,1.095448 0.736928,1.979676 1.638521,1.976 0.901826,-0.0034 1.630134,-0.895117 1.626638,-1.99 C 20.189109,8.203323 17.404206,5.568372 13.105627,5.548 L 6.1917057,8.5148167 C 5,9 3,10 1.8046231,10.706837 0.22012836,11.643763 -0.00624521,14.019201 4.5890465e-5,16.034452 0.00680589,18.107404 0.70716349,19.989721 1.8328172,21.3567 c 1.1258867,1.367261 2.6763667,2.218337 4.384293,2.226541 l 1.8800461,0.0085 c 0.9013602,0.004 1.634792,-0.880486 1.6378188,-1.975934 C 9.7382351,20.521773 9.0092259,19.630253 8.1074,19.626292 z M 31.99996,16.155563 C 31.985981,11.799791 29.565581,8.6251649 26.245222,8.6093202 l -2.341907,-0.01047 c -0.901825,-0.00396 -1.635256,0.8799199 -1.638283,1.9753688 -0.003,1.095448 0.725283,1.98612 1.627108,1.990081 l 2.340742,0.01075 c 1.720736,0.0074 2.495862,1.811892 2.501686,3.595779 0.0035,0.950633 -0.298355,1.841585 -0.848488,2.509658 -0.550364,0.668355 -1.284261,1.034635 -2.066372,1.03124 l -7.375548,-0.03593 c -3.372763,-0.01613 -3.378589,-1.938041 -3.381151,-2.758002 -0.0033,-1.095165 -0.736696,-1.979049 -1.638521,-1.975656 -0.901826,0.0034 -1.630134,0.894628 -1.626638,1.98951 0.0058,1.880618 0.510542,3.422393 1.44055,4.551784 1.138696,1.382818 2.914867,2.147059 5.193886,2.156964 l 7.375549,0.03593 c 1.659015,0.0071 3.217412,-0.771023 4.387548,-2.192021 1.169671,-1.420432 1.810403,-3.312929 1.804577,-5.328743 z"
       inkscape:connector-curvature="0"
       style="fill:#4a7db1;fill-opacity:1"
       sodipodi:nodetypes="cccscccccccscsccccccccccccscccscsccsc" />
    <g
       transform="matrix(0.4,0,0,0.39999889,0,8.88e-5)"
       id="g7" />
    <g
       transform="matrix(0.4,0,0,0.39999889,0,8.88e-5)"
       id="g9" />
    <g
       transform="matrix(0.4,0,0,0.39999889,0,8.88e-5)"
       id="g11" />
    <g
       transform="matrix(0.4,0,0,0.39999889,0,8.88e-5)"
       id="g13" />
    <g
       transform="matrix(0.4,0,0,0.39999889,0,8.88e-5)"
       id="g15" />
    <g
       transform="matrix(0.4,0,0,0.39999889,0,8.88e-5)"
       id="g17" />
    <g
       transform="matrix(0.4,0,0,0.39999889,0,8.88e-5)"
       id="g19" />
    <g
       transform="matrix(0.4,0,0,0.39999889,0,8.88e-5)"
       id="g21" />
    <g
       transform="matrix(0.4,0,0,0.39999889,0,8.88e-5)"
       id="g23" />
    <g
       transform="matrix(0.4,0,0,0.39999889,0,8.88e-5)"
       id="g25" />
    <g
       transform="matrix(0.4,0,0,0.39999889,0,8.88e-5)"
       id="g27" />
    <g
       transform="matrix(0.4,0,0,0.39999889,0,8.88e-5)"
       id="g29" />
    <g
       transform="matrix(0.4,0,0,0.39999889,0,8.88e-5)"
       id="g31" />
    <g
       transform="matrix(0.4,0,0,0.39999889,0,8.88e-5)"
       id="g33" />
    <g
       transform="matrix(0.4,0,0,0.39999889,0,8.88e-5)"
       id="g35" />
  </g>
</svg>
