<?xml version="1.0" encoding="UTF-8" standalone="no"?>
<!-- Created with Inkscape (http://www.inkscape.org/) -->

<svg
   xmlns:dc="http://purl.org/dc/elements/1.1/"
   xmlns:cc="http://creativecommons.org/ns#"
   xmlns:rdf="http://www.w3.org/1999/02/22-rdf-syntax-ns#"
   xmlns:svg="http://www.w3.org/2000/svg"
   xmlns="http://www.w3.org/2000/svg"
   xmlns:sodipodi="http://sodipodi.sourceforge.net/DTD/sodipodi-0.dtd"
   xmlns:inkscape="http://www.inkscape.org/namespaces/inkscape"
   width="32px"
   height="32px"
   id="svg3000"
   version="1.1"
   inkscape:version="0.48.4 r9939"
   sodipodi:docname="grid.svg">
  <defs
     id="defs3002" />
  <sodipodi:namedview
     id="base"
     pagecolor="#ffffff"
     bordercolor="#666666"
     borderopacity="1.0"
     inkscape:pageopacity="0.0"
     inkscape:pageshadow="2"
     inkscape:zoom="11.197802"
     inkscape:cx="2.0686946"
     inkscape:cy="16"
     inkscape:current-layer="layer1"
     showgrid="true"
     inkscape:grid-bbox="true"
     inkscape:document-units="px"
     inkscape:window-width="1600"
     inkscape:window-height="838"
     inkscape:window-x="-8"
     inkscape:window-y="-8"
     inkscape:window-maximized="1" />
  <metadata
     id="metadata3005">
    <rdf:RDF>
      <cc:Work
         rdf:about="">
        <dc:format>image/svg+xml</dc:format>
        <dc:type
           rdf:resource="http://purl.org/dc/dcmitype/StillImage" />
        <dc:title></dc:title>
      </cc:Work>
    </rdf:RDF>
  </metadata>
  <g
     id="layer1"
     inkscape:label="Layer 1"
     inkscape:groupmode="layer">
    <path
       inkscape:connector-curvature="0"
       d="M 27.948967,1.0137408 H 3.9489692 c -1.6574999,0 -2.99999944,1.3425002 -2.99999944,3.0000001 V 28.013743 c 0,1.6575 1.34249954,3 2.99999944,3 H 27.948967 c 1.6575,0 3,-1.3425 3,-3 V 4.0137409 c 0,-1.6574999 -1.3425,-3.0000001 -3,-3.0000001 z M 9.9489688,28.013743 H 3.9489692 v -6 h 5.9999996 v 6 z m 0,-8.999999 H 3.9489692 v -6 h 5.9999996 v 6 z m 0,-9.000001 H 3.9489692 V 4.0137409 h 5.9999996 v 6.0000021 z m 8.9999982,18 h -6.000001 v -6 h 6.000001 v 6 z m 0,-8.999999 h -6.000001 v -6 h 6.000001 v 6 z m 0,-9.000001 H 12.948966 V 4.0137409 h 6.000001 v 6.0000021 z m 9,18 h -6 v -6 h 6 v 6 z m 0,-8.999999 h -6 v -6 h 6 v 6 z m 0,-9.000001 h -6 V 4.0137409 h 6 v 6.0000021 z"
       id="path6"
       style="fill:#000000;fill-opacity:0.66137564" />
  </g>
</svg>
