<?xml version="1.0" encoding="UTF-8" standalone="no"?>
<!-- Created with Inkscape (http://www.inkscape.org/) -->

<svg
   xmlns:dc="http://purl.org/dc/elements/1.1/"
   xmlns:cc="http://creativecommons.org/ns#"
   xmlns:rdf="http://www.w3.org/1999/02/22-rdf-syntax-ns#"
   xmlns:svg="http://www.w3.org/2000/svg"
   xmlns="http://www.w3.org/2000/svg"
   xmlns:sodipodi="http://sodipodi.sourceforge.net/DTD/sodipodi-0.dtd"
   xmlns:inkscape="http://www.inkscape.org/namespaces/inkscape"
   width="983.28699"
   height="131.968"
   id="svg2"
   version="1.1"
   inkscape:version="0.48.4 r9939"
   sodipodi:docname="logo.svg"
   inkscape:export-filename="/home/martin/trunk/doc/images/logo.png"
   inkscape:export-xdpi="17.731571"
   inkscape:export-ydpi="17.731571">
  <defs
     id="defs4" />
  <sodipodi:namedview
     id="base"
     pagecolor="#ffffff"
     bordercolor="#666666"
     borderopacity="1.0"
     inkscape:pageopacity="0.0"
     inkscape:pageshadow="2"
     inkscape:zoom="0.35"
     inkscape:cx="1230.0153"
     inkscape:cy="-113.76336"
     inkscape:document-units="px"
     inkscape:current-layer="layer1"
     showgrid="false"
     fit-margin-top="4"
     fit-margin-left="4"
     fit-margin-bottom="4"
     fit-margin-right="4"
     units="pt"
     inkscape:window-width="1078"
     inkscape:window-height="749"
     inkscape:window-x="680"
     inkscape:window-y="210"
     inkscape:window-maximized="0" />
  <metadata
     id="metadata7">
    <rdf:RDF>
      <cc:Work
         rdf:about="">
        <dc:format>image/svg+xml</dc:format>
        <dc:type
           rdf:resource="http://purl.org/dc/dcmitype/StillImage" />
        <dc:title></dc:title>
      </cc:Work>
    </rdf:RDF>
  </metadata>
  <g
     inkscape:label="Layer 1"
     inkscape:groupmode="layer"
     id="layer1"
     transform="translate(86.538272,-426.58507)">
    <g
       style="font-size:40px;font-style:normal;font-weight:normal;line-height:125%;letter-spacing:0px;word-spacing:0px;fill:#000000;fill-opacity:1;stroke:none;font-family:Sans"
       id="text2985">
      <path
         d="m -12.961466,529.76006 c -6.808045,0 -13.156039,-1.196 -19.044,-3.588 -5.888027,-2.48399 -10.994022,-5.84199 -15.318,-10.074 -4.324013,-4.32398 -7.72801,-9.38397 -10.212,-15.18 -2.484005,-5.79596 -3.726004,-12.05196 -3.726,-18.768 -4e-6,-6.80794 1.241995,-13.10994 3.726,-18.906 2.48399,-5.88792 5.887987,-10.99392 10.212,-15.318 4.323978,-4.32391 9.429973,-7.68191 15.318,-10.074 5.887961,-2.4839 12.235955,-3.7259 19.044,-3.726 6.8999409,1e-4 13.29393452,1.2421 19.1820001,3.726 5.9799229,2.48409 11.1319179,5.88809 15.4559999,10.212 4.415909,4.23208 7.865905,9.29208 10.35,15.18 2.5759,5.79606 3.863899,12.05206 3.864,18.768 -1.01e-4,6.71604 -1.2881,12.97204 -3.864,18.768 -2.484095,5.79603 -5.934091,10.85602 -10.35,15.18 -4.324082,4.23201 -9.476077,7.59001 -15.4559999,10.074 -5.88806558,2.484 -12.2820592,3.726 -19.1820001,3.726 m 0.276,-74.934 c -3.588049,8e-5 -6.946046,0.69008 -10.074,2.07 -3.036039,1.38007 -5.658037,3.26607 -7.866,5.658 -2.208032,2.39207 -3.956031,5.24406 -5.244,8.556 -1.288028,3.22006 -1.932027,6.76205 -1.932,10.626 -2.7e-5,3.86405 0.643972,7.49804 1.932,10.902 1.287969,3.31204 3.035968,6.21003 5.244,8.694 2.299963,2.39203 5.01396,4.27803 8.142,5.658 3.127954,1.38002 6.485951,2.07002 10.074,2.07 3.4959438,2e-5 6.7619405,-0.68998 9.7980001,-2.07 3.03593433,-1.37997 5.6579317,-3.26597 7.866,-5.658 2.2079273,-2.39197 3.9559255,-5.24396 5.2439999,-8.556 1.287923,-3.31196 1.931922,-6.85395 1.932,-10.626 -7.8e-5,-3.86395 -0.644077,-7.45194 -1.932,-10.764 -1.2880744,-3.31194 -3.0820726,-6.20993 -5.3819999,-8.694 -2.2080682,-2.48393 -4.83006553,-4.41593 -7.866,-5.796 -3.0360595,-1.37992 -6.3480561,-2.06992 -9.9360001,-2.07"
         style="fill:#23afe5;fill-opacity:1"
         id="path3024" />
      <path
         d="m 46.753722,551.01206 0,-92.046 19.458,0 0,7.59 c 2.667971,-3.49593 5.703968,-6.02593 9.108,-7.59 3.495961,-1.56392 7.727956,-2.34592 12.696,-2.346 4.967946,8e-5 9.521942,0.92007 13.661998,2.76 4.13994,1.84007 7.68193,4.41607 10.626,7.728 3.03593,3.31206 5.38192,7.26806 7.038,11.868 1.65592,4.60005 2.48392,9.61404 2.484,15.042 -8e-5,5.15203 -0.87408,9.98203 -2.622,14.49 -1.65608,4.41602 -4.00207,8.23402 -7.038,11.454 -3.03607,3.22001 -6.62406,5.75001 -10.764,7.59 -4.048056,1.84 -8.464051,2.76 -13.247998,2.76 -4.416044,0 -8.28004,-0.69 -11.592,-2.07 -3.312034,-1.37999 -6.348031,-3.58799 -9.108,-6.624 l 0,29.394 -20.7,0 m 36.984,-75.072 c -2.392042,6e-5 -4.64604,0.46006 -6.762,1.38 -2.024035,0.92005 -3.818034,2.16205 -5.382,3.726 -1.564031,1.56405 -2.806029,3.40405 -3.726,5.52 -0.920027,2.02404 -1.380027,4.23204 -1.38,6.624 -2.7e-5,2.48404 0.413973,4.83003 1.242,7.038 0.919971,2.11603 2.16197,4.00203 3.726,5.658 1.563966,1.56402 3.403965,2.80602 5.52,3.726 2.11596,0.92002 4.415958,1.38002 6.9,1.38 2.391953,2e-5 4.645951,-0.41398 6.762,-1.242 2.115947,-0.91998 3.955945,-2.16198 5.52,-3.726 1.563942,-1.65597 2.759941,-3.54197 3.588,-5.658 0.919938,-2.11597 1.379938,-4.41596 1.379998,-6.9 -6e-5,-2.48396 -0.46006,-4.78396 -1.379998,-6.9 -0.828059,-2.11595 -2.024058,-3.95595 -3.588,-5.52 -1.564055,-1.65595 -3.404053,-2.89795 -5.52,-3.726 -2.116049,-0.91994 -4.416047,-1.37994 -6.9,-1.38"
         style="fill:#23afe5;fill-opacity:1"
         id="path3026" />
      <path
         d="m 177.44619,507.40406 c 0.0919,-0.18397 0.22995,-0.32197 0.414,-0.414 0.18395,-0.18397 0.36795,-0.36797 0.552,-0.552 l 20.976,0 c -3.22007,7.45202 -7.77407,13.29401 -13.662,17.526 -5.88805,4.232 -12.51205,6.348 -19.872,6.348 -5.06003,0 -9.79803,-0.92 -14.214,-2.76 -4.41602,-1.93199 -8.28002,-4.55399 -11.592,-7.866 -3.22001,-3.31198 -5.79601,-7.17598 -7.728,-11.592 -1.84,-4.50797 -2.76,-9.33797 -2.76,-14.49 0,-5.15196 0.92,-9.98195 2.76,-14.49 1.93199,-4.50794 4.50799,-8.41794 7.728,-11.73 3.21998,-3.31193 6.99198,-5.93393 11.316,-7.866 4.41597,-1.93193 9.10797,-2.89792 14.076,-2.898 5.15196,8e-5 9.93595,0.96607 14.352,2.898 4.50794,1.93207 8.37194,4.60007 11.592,8.004 3.31193,3.31206 5.88793,7.26806 7.728,11.868 1.83993,4.60005 2.75992,9.56804 2.76,14.904 -8e-5,1.19604 -0.0461,2.16204 -0.138,2.898 -0.0921,0.64403 -0.23008,1.56403 -0.414,2.76 l -51.75,0 c 0.45998,3.86403 2.06997,6.99203 4.83,9.384 2.75997,2.30002 6.20997,3.45002 10.35,3.45 2.57596,2e-5 4.78396,-0.36798 6.624,-1.104 1.83995,-0.73598 3.86395,-2.16198 6.072,-4.278 m 3.726,-21.252 c -0.73605,-3.58795 -2.53005,-6.48595 -5.382,-8.694 -2.76005,-2.20794 -6.16404,-3.31194 -10.212,-3.312 -4.04804,6e-5 -7.45203,1.05806 -10.212,3.174 -2.66803,2.02405 -4.41602,4.96805 -5.244,8.832 l 31.05,0"
         style="fill:#23afe5;fill-opacity:1"
         id="path3028" />
      <path
         d="m 212.51544,527.96606 0,-69 19.596,0 0,7.314 c 2.39197,-3.40393 5.01397,-5.84193 7.866,-7.314 2.94396,-1.56392 6.62396,-2.34592 11.04,-2.346 3.67995,8e-5 7.12995,0.64408 10.35,1.932 3.21994,1.19607 5.93394,2.89807 8.142,5.106 1.37994,1.28807 2.48393,2.62207 3.312,4.002 0.91993,1.28806 1.60993,2.76006 2.07,4.416 0.55193,1.56406 0.91993,3.40406 1.104,5.52 0.27593,2.02405 0.41393,4.41605 0.414,7.176 l 0,43.194 -20.7,0 0,-37.674 c -5e-5,-4.96795 -0.87405,-8.60195 -2.622,-10.902 -1.65605,-2.29994 -4.37004,-3.44994 -8.142,-3.45 -7.82003,6e-5 -11.73003,4.50805 -11.73,13.524 l 0,38.502 -20.7,0"
         style="fill:#23afe5;fill-opacity:1"
         id="path3030" />
      <path
         d="m 290.83691,527.96606 0,-92.046 30.222,0 18.216,60.582 18.216,-60.582 30.36,0 0,92.046 -21.666,0 0.828,-69.138 -19.872,69.138 -15.594,0 -19.872,-69.138 0.69,69.138 -21.528,0"
         style="font-size:138px;font-variant:normal;font-weight:bold;font-stretch:normal;font-family:AvantGardeMdITC;-inkscape-font-specification:AvantGardeMdITC Bold"
         id="path3032" />
      <path
         d="m 436.75897,530.31206 c -5.42803,0 -10.44203,-0.92 -15.042,-2.76 -4.50802,-1.83999 -8.41802,-4.36999 -11.73,-7.59 -3.31201,-3.21998 -5.93401,-7.03798 -7.866,-11.454 -1.84,-4.50797 -2.76,-9.38397 -2.76,-14.628 0,-5.33596 0.92,-10.25795 2.76,-14.766 1.83999,-4.59994 4.41599,-8.55594 7.728,-11.868 3.31198,-3.31193 7.22198,-5.88793 11.73,-7.728 4.59997,-1.93193 9.61397,-2.89792 15.042,-2.898 5.33596,8e-5 10.25795,0.92007 14.766,2.76 4.59994,1.84007 8.55594,4.41607 11.868,7.728 3.31193,3.31206 5.88793,7.22206 7.728,11.73 1.93192,4.50805 2.89792,9.38404 2.898,14.628 -8e-5,5.24403 -0.96608,10.12003 -2.898,14.628 -1.84007,4.50802 -4.41607,8.41802 -7.728,11.73 -3.31206,3.31201 -7.22206,5.88801 -11.73,7.728 -4.50805,1.84 -9.43004,2.76 -14.766,2.76 m 0,-54.372 c -2.39204,6e-5 -4.60003,0.46006 -6.624,1.38 -2.02403,0.92005 -3.77203,2.16205 -5.244,3.726 -1.47203,1.56405 -2.66802,3.40405 -3.588,5.52 -0.82802,2.11604 -1.24202,4.37004 -1.242,6.762 -2e-5,2.48404 0.41398,4.83003 1.242,7.038 0.82798,2.11603 1.97797,4.00203 3.45,5.658 1.56397,1.56402 3.35797,2.80602 5.382,3.726 2.02397,0.82802 4.23196,1.24202 6.624,1.242 2.29996,2e-5 4.46196,-0.41398 6.486,-1.242 2.02395,-0.91998 3.77195,-2.16198 5.244,-3.726 1.47195,-1.65597 2.62195,-3.54197 3.45,-5.658 0.82794,-2.11597 1.24194,-4.41596 1.242,-6.9 -6e-5,-2.48396 -0.46006,-4.78396 -1.38,-6.9 -0.82805,-2.11595 -1.97805,-3.95595 -3.45,-5.52 -1.47205,-1.56395 -3.22005,-2.80595 -5.244,-3.726 -1.93204,-0.91994 -4.04804,-1.37994 -6.348,-1.38"
         style="font-size:138px;font-variant:normal;font-weight:bold;font-stretch:normal;font-family:AvantGardeMdITC;-inkscape-font-specification:AvantGardeMdITC Bold"
         id="path3034" />
      <path
         d="m 556.916,435.92006 0,92.046 -19.596,0 0,-7.314 c -2.76005,3.40401 -5.79605,5.84201 -9.108,7.314 -3.22004,1.564 -7.22204,2.346 -12.006,2.346 -5.06003,0 -9.70603,-0.92 -13.938,-2.76 -4.23202,-1.83999 -7.91201,-4.36999 -11.04,-7.59 -3.03601,-3.31198 -5.42801,-7.22198 -7.176,-11.73 -1.656,-4.50797 -2.484,-9.47597 -2.484,-14.904 0,-5.24396 0.874,-10.11995 2.622,-14.628 1.74799,-4.50794 4.13999,-8.37194 7.176,-11.592 3.03599,-3.31193 6.62398,-5.88793 10.764,-7.728 4.23197,-1.83993 8.78597,-2.75992 13.662,-2.76 4.32396,8e-5 8.09596,0.69008 11.316,2.07 3.21995,1.28807 6.25595,3.31207 9.108,6.072 l 0,-28.842 20.7,0 m -36.984,40.02 c -2.57604,6e-5 -4.96803,0.46006 -7.176,1.38 -2.11603,0.82805 -3.95603,2.02405 -5.52,3.588 -1.56402,1.47205 -2.80602,3.31205 -3.726,5.52 -0.82802,2.11604 -1.24202,4.41604 -1.242,6.9 -2e-5,2.57604 0.41398,4.96803 1.242,7.176 0.91998,2.11603 2.11598,3.95603 3.588,5.52 1.56397,1.56402 3.40397,2.80602 5.52,3.726 2.20797,0.82802 4.55396,1.24202 7.038,1.242 5.15196,2e-5 9.38395,-1.65598 12.696,-4.968 3.31195,-3.31197 4.96794,-7.58997 4.968,-12.834 -6e-5,-2.48396 -0.46006,-4.73796 -1.38,-6.762 -0.82805,-2.11595 -2.02405,-3.95595 -3.588,-5.52 -1.56405,-1.56395 -3.40405,-2.75995 -5.52,-3.588 -2.11604,-0.91994 -4.41604,-1.37994 -6.9,-1.38"
         style="font-size:138px;font-variant:normal;font-weight:bold;font-stretch:normal;font-family:AvantGardeMdITC;-inkscape-font-specification:AvantGardeMdITC Bold"
         id="path3036" />
      <path
         d="m 615.43447,507.40406 c 0.0919,-0.18397 0.22995,-0.32197 0.414,-0.414 0.18395,-0.18397 0.36795,-0.36797 0.552,-0.552 l 20.976,0 c -3.22007,7.45202 -7.77406,13.29401 -13.662,17.526 -5.88805,4.232 -12.51205,6.348 -19.872,6.348 -5.06003,0 -9.79803,-0.92 -14.214,-2.76 -4.41602,-1.93199 -8.28002,-4.55399 -11.592,-7.866 -3.22001,-3.31198 -5.79601,-7.17598 -7.728,-11.592 -1.84,-4.50797 -2.76,-9.33797 -2.76,-14.49 0,-5.15196 0.92,-9.98195 2.76,-14.49 1.93199,-4.50794 4.50799,-8.41794 7.728,-11.73 3.21998,-3.31193 6.99198,-5.93393 11.316,-7.866 4.41597,-1.93193 9.10797,-2.89792 14.076,-2.898 5.15196,8e-5 9.93595,0.96607 14.352,2.898 4.50794,1.93207 8.37194,4.60007 11.592,8.004 3.31193,3.31206 5.88793,7.26806 7.728,11.868 1.83993,4.60005 2.75993,9.56804 2.76,14.904 -7e-5,1.19604 -0.0461,2.16204 -0.138,2.898 -0.0921,0.64403 -0.23007,1.56403 -0.414,2.76 l -51.75,0 c 0.45998,3.86403 2.06998,6.99203 4.83,9.384 2.75997,2.30002 6.20997,3.45002 10.35,3.45 2.57596,2e-5 4.78396,-0.36798 6.624,-1.104 1.83995,-0.73598 3.86395,-2.16198 6.072,-4.278 m 3.726,-21.252 c -0.73605,-3.58795 -2.53005,-6.48595 -5.382,-8.694 -2.76005,-2.20794 -6.16404,-3.31194 -10.212,-3.312 -4.04803,6e-5 -7.45203,1.05806 -10.212,3.174 -2.66803,2.02405 -4.41602,4.96805 -5.244,8.832 l 31.05,0"
         style="font-size:138px;font-variant:normal;font-weight:bold;font-stretch:normal;font-family:AvantGardeMdITC;-inkscape-font-specification:AvantGardeMdITC Bold"
         id="path3038" />
      <path
         d="m 650.50372,527.96606 0,-92.046 20.7,0 0,92.046 -20.7,0"
         style="font-size:138px;font-variant:normal;font-weight:bold;font-stretch:normal;font-family:AvantGardeMdITC;-inkscape-font-specification:AvantGardeMdITC Bold"
         id="path3040" />
      <path
         d="m 705.70372,458.96606 0,69 -20.7,0 0,-69 20.7,0 m 0,-23.046 0,15.732 -20.7,0 0,-15.732 20.7,0"
         style="font-size:138px;font-variant:normal;font-weight:bold;font-stretch:normal;font-family:AvantGardeMdITC;-inkscape-font-specification:AvantGardeMdITC Bold"
         id="path3042" />
      <path
         d="m 753.45172,510.99206 c 3.21996,2e-5 6.02595,-0.73598 8.418,-2.208 2.39195,-1.47197 4.64595,-3.81797 6.762,-7.038 l 20.838,0 c -1.01207,4.23203 -2.66807,8.09602 -4.968,11.592 -2.20807,3.49602 -4.92207,6.53201 -8.142,9.108 -3.12806,2.48401 -6.67006,4.41601 -10.626,5.796 -3.95605,1.38 -8.09604,2.07 -12.42,2.07 -5.15203,0 -9.98203,-0.966 -14.49,-2.898 -4.50802,-1.93199 -8.41802,-4.55399 -11.73,-7.866 -3.31201,-3.31198 -5.93401,-7.22198 -7.866,-11.73 -1.932,-4.50797 -2.898,-9.33797 -2.898,-14.49 0,-5.15196 0.92,-9.93595 2.76,-14.352 1.93199,-4.50794 4.50799,-8.41794 7.728,-11.73 3.31198,-3.31193 7.17598,-5.88793 11.592,-7.728 4.41597,-1.93193 9.19997,-2.89792 14.352,-2.898 4.50796,8e-5 8.78595,0.69008 12.834,2.07 4.04794,1.38007 7.68194,3.35807 10.902,5.934 3.21993,2.57607 5.93393,5.65806 8.142,9.246 2.20793,3.49606 3.77193,7.40605 4.692,11.73 l -20.838,0 c -1.28805,-3.03595 -3.26605,-5.38195 -5.934,-7.038 -2.66805,-1.74794 -5.70404,-2.62194 -9.108,-2.622 -2.39204,6e-5 -4.60003,0.46006 -6.624,1.38 -2.02403,0.82805 -3.77203,2.07005 -5.244,3.726 -1.38003,1.56405 -2.48402,3.45005 -3.312,5.658 -0.82802,2.11604 -1.24202,4.46204 -1.242,7.038 -2e-5,5.06003 1.51798,9.20003 4.554,12.42 3.12797,3.22002 7.08397,4.83002 11.868,4.83"
         style="font-size:138px;font-variant:normal;font-weight:bold;font-stretch:normal;font-family:AvantGardeMdITC;-inkscape-font-specification:AvantGardeMdITC Bold"
         id="path3044" />
      <path
         d="m 871.47191,458.96606 0,69 -19.458,0 0,-7.452 c -3.31206,6.53201 -10.44205,9.798 -21.39,9.798 -5.24403,0 -10.02803,-0.874 -14.352,-2.622 -4.23202,-1.83999 -7.91202,-4.36999 -11.04,-7.59 -3.03601,-3.21998 -5.42801,-7.08398 -7.176,-11.592 -1.65601,-4.50797 -2.484,-9.52197 -2.484,-15.042 0,-5.42796 0.87399,-10.39595 2.622,-14.904 1.74799,-4.59994 4.18599,-8.50994 7.314,-11.73 3.12798,-3.31193 6.85398,-5.84193 11.178,-7.59 4.32397,-1.83992 9.10797,-2.75992 14.352,-2.76 5.24395,8e-5 9.56795,0.78208 12.972,2.346 3.40394,1.56407 6.07194,4.04807 8.004,7.452 l 0,-7.314 19.458,0 m -38.088,16.974 c -2.39204,6e-5 -4.64604,0.46006 -6.762,1.38 -2.11603,0.82805 -3.95603,2.07005 -5.52,3.726 -1.47203,1.56405 -2.66803,3.40405 -3.588,5.52 -0.82803,2.11604 -1.24203,4.41604 -1.242,6.9 -3e-5,2.48404 0.41397,4.78403 1.242,6.9 0.91997,2.11603 2.16197,4.00203 3.726,5.658 1.56397,1.56402 3.40397,2.80602 5.52,3.726 2.11596,0.82802 4.36996,1.24202 6.762,1.242 2.48395,2e-5 4.78395,-0.41398 6.9,-1.242 2.11595,-0.91998 3.90995,-2.16198 5.382,-3.726 1.56394,-1.56397 2.75994,-3.40397 3.588,-5.52 0.91994,-2.20797 1.37994,-4.59996 1.38,-7.176 -6e-5,-2.48396 -0.46006,-4.78396 -1.38,-6.9 -0.82806,-2.11595 -2.02406,-3.95595 -3.588,-5.52 -1.47205,-1.56395 -3.31205,-2.75995 -5.52,-3.588 -2.11605,-0.91994 -4.41604,-1.37994 -6.9,-1.38"
         style="font-size:138px;font-variant:normal;font-weight:bold;font-stretch:normal;font-family:AvantGardeMdITC;-inkscape-font-specification:AvantGardeMdITC Bold"
         id="path3046" />
    </g>
  </g>
</svg>
